<svg id="Layer_1" data-name="Layer 1" xmlns="http://www.w3.org/2000/svg" viewBox="0 0 70 54"><defs><style>.cls-1{fill:#fff;stroke:#fff;stroke-miterlimit:10;stroke-width:0.25px;}</style></defs><title>Artboard 14</title><path class="cls-1" d="M59.83,5.57c-.17-2.65-2.61-4.14-5.22-3.37A6,6,0,0,0,52,3.78c-3.76,3.76-7.52,7.51-11.27,11.29a1.32,1.32,0,0,1-1.46.42c-1.8-.46-3.64-.81-5.59-1.23l3.19-3.17a1,1,0,1,0-1.38-1.41c-1.23,1.22-2.46,2.44-3.67,3.68a.92.92,0,0,1-1,.29L25,12.35a2,2,0,0,1-.34-.15l2.73-2.71c.57-.58.65-1.16.22-1.6s-1-.39-1.64.22c-1,1-2.1,2-3.1,3.11a1.22,1.22,0,0,1-1.34.37c-1.79-.42-3.59-.85-5.4-1.15A4.16,4.16,0,0,0,12,11.76,15.83,15.83,0,0,0,9.9,14.13v.73a5.11,5.11,0,0,0,2.84,2.45c2.34,1.1,4.71,2.16,7.06,3.27,3.33,1.57,6.65,3.16,9.92,4.86,0,.08,0,.13-.07.17l-8,8.58a.72.72,0,0,1-.71.26c-.62-.09-1.26-.13-1.88-.23-2.35-.37-4.44-.07-6,2-1,1.35-.85,2.49.65,3.29.27.14.57.26.86.38l4.77,2a1.12,1.12,0,0,1,.68.68c.42,1.09.86,2.16,1.31,3.23.38.89.73,1.8,1.18,2.66a1.74,1.74,0,0,0,2.14,1,5.48,5.48,0,0,0,3.14-4.22c0-1.42-.26-2.81-.36-4.22a.78.78,0,0,1,.23-.7c1.95-1.94,3.88-3.91,5.87-5.82A25.17,25.17,0,0,1,36.34,32c.91,1.85,1.82,3.65,2.7,5.46q2.85,5.85,5.54,11.77a4.84,4.84,0,0,0,2.36,2.73h.59c1.67-1,3.23-2.24,3.85-4.22a6.66,6.66,0,0,0-.25-3.45c-.32-1.39-.62-2.79-1-4.18a.94.94,0,0,1,.33-1c1.41-1.38,2.8-2.78,4.19-4.18.56-.56.64-1.17.22-1.6s-1-.4-1.64.21c-1.2,1.2-2.39,2.42-3.68,3.72-.32-1.38-.61-2.63-.88-3.87-.18-.81-.31-1.62-.53-2.42a.89.89,0,0,1,.31-1c1.1-1.08,2.18-2.17,3.26-3.26.55-.56.61-1.07.18-1.52s-1-.45-1.59.13c-.91.91-1.8,1.83-2.77,2.81-.47-2.1-.91-4.06-1.36-6-.09-.39.15-.58.37-.81,3.8-3.79,7.58-7.59,11.39-11.37a6.07,6.07,0,0,0,1.85-3.62c0-.11,0-.19.14-.22V5.78C59.85,5.76,59.83,5.67,59.83,5.57Zm-2,.51a3.9,3.9,0,0,1-1.2,2.35c-4,4-7.9,7.92-11.87,11.84a1.87,1.87,0,0,0-.54,2Q46.63,33,49,43.89c.18.78.36,1.56.5,2.35a1.92,1.92,0,0,1-.6,1.92,11,11,0,0,0-1.18,1.19c-.38.47-.58.33-.83-.1-1-1.64-1.6-3.42-2.42-5.13-2.17-4.56-4.33-9.12-6.64-13.61,0-.09-.09-.17-.13-.26-.53-1-1.09-1.12-2-.42a95.13,95.13,0,0,0-7.9,7.39,15.17,15.17,0,0,1-1.5,1.5,2.49,2.49,0,0,0-.9,2.58c.16,1.13.26,2.27.4,3.41C26,46,25,46.55,24.15,47.4c-.87-2.1-1.71-4.09-2.5-6.09a1.86,1.86,0,0,0-1.13-1.13c-1.85-.73-3.67-1.51-5.52-2.24-.49-.2-.49-.32-.15-.73a3,3,0,0,1,2.77-1.11c1.19.11,2.38.18,3.56.36a1.55,1.55,0,0,0,1.5-.5q3.91-4.2,7.85-8.37c.47-.5.95-1,1.42-1.47.77-.81.66-1.43-.31-1.94-4-2.09-8.07-4-12.15-6-2.15-1-4.32-2-6.46-3-1.09-.53-1-.51-.24-1.44,1.14-1.44,2.5-1.55,4.17-1.18,7.21,1.63,14.45,3.13,21.65,4.83a3.54,3.54,0,0,0,3.85-1.19C46,12.51,49.71,8.91,53.35,5.27A3.6,3.6,0,0,1,56.12,4,1.78,1.78,0,0,1,57.84,6.08Z"/></svg>