<svg id="Layer_1" data-name="Layer 1" xmlns="http://www.w3.org/2000/svg" viewBox="0 0 70 54"><defs><style>.cls-1{fill:#fff;}</style></defs><title>Artboard 1</title><path class="cls-1" d="M62.85,10.54A10.8,10.8,0,0,0,53.76,6C46.53,6,39.3,6.1,32.07,6.1c-7.9,0-15.81,0-23.72-.08C5.59,6,4,7.59,4,10.37V38.63a3.91,3.91,0,0,0,4.24,4.26c.8,0,1.6,0,2.48,0a14.65,14.65,0,0,0,.18,1.55,8.29,8.29,0,0,0,7.18,6.8,1.54,1.54,0,0,1,.32.15h1.66l.95-.24a8.36,8.36,0,0,0,6.47-7.08L27.7,43H43.32a8.79,8.79,0,0,0,2.08,5.46,8.18,8.18,0,0,0,5.22,2.84,1,1,0,0,1,.31.15h1.66a20.56,20.56,0,0,0,3.5-1.28,8.24,8.24,0,0,0,4.13-7.22H62c3,0,3.9-.59,5-3.32v-15c-.12-1.19-.23-2.37-.38-3.55C66.15,17.28,65.21,13.64,62.85,10.54ZM46.39,8.65s.06-.08.11-.08c2.67,0,5.34-.15,8-.07,3.29.1,5.5,2,7.13,4.69A19.36,19.36,0,0,1,64,20.48c.15,1,.23,1.94.35,3h-18Zm-20-.08H43.8V23.46H26.43ZM6.55,10.34c0-1.41.42-1.81,1.81-1.81H23.9V23.46H6.59c0-.28,0-.51,0-.75C6.55,18.58,6.54,14.46,6.55,10.34ZM19.21,48.83a5.94,5.94,0,0,1-6-5.78,5.94,5.94,0,1,1,11.87-.11A5.89,5.89,0,0,1,19.21,48.83Zm32.52,0a5.82,5.82,0,0,1-5.84-5.93A5.91,5.91,0,0,1,51.79,37a6,6,0,0,1,5.94,5.92A6,6,0,0,1,51.73,48.83Zm12.69-9.89a1.26,1.26,0,0,1-1.34,1.41,19.56,19.56,0,0,1-2.76,0,1.26,1.26,0,0,1-.76-.71,8.45,8.45,0,0,0-12.7-3.53A7.8,7.8,0,0,0,44,39.76a.85.85,0,0,1-1,.63c-5,0-10.09,0-15.14,0-.52,0-.72-.21-.93-.66a8,8,0,0,0-7.78-5.16,8,8,0,0,0-7.77,5.18.86.86,0,0,1-.95.63c-.86,0-1.72,0-2.58,0A1.22,1.22,0,0,1,6.56,39c0-4.28,0-8.56,0-13H64.36a3.13,3.13,0,0,1,.06.48C64.42,30.68,64.43,34.81,64.42,38.94Z"/><path class="cls-1" d="M51.8,39a4,4,0,0,0-4,3.94,4,4,0,0,0,4,4.07,4,4,0,0,0,3.93-4A3.88,3.88,0,0,0,51.8,39Zm0,5.47a1.56,1.56,0,0,1-1.54-1.49,1.53,1.53,0,0,1,3,0A1.57,1.57,0,0,1,51.79,44.42Z"/><path class="cls-1" d="M19.19,39a3.85,3.85,0,0,0-3.93,4,4,4,0,0,0,3.93,4,4.09,4.09,0,0,0,4-4.06A4,4,0,0,0,19.19,39Zm.09,5.44A1.5,1.5,0,0,1,17.69,43a1.56,1.56,0,0,1,1.48-1.55,1.5,1.5,0,0,1,1.53,1.49A1.46,1.46,0,0,1,19.28,44.41Z"/><path class="cls-1" d="M51.8,41.43a1.58,1.58,0,0,0-1.55,1.5,1.53,1.53,0,0,0,3,0A1.6,1.6,0,0,0,51.8,41.43Z"/><path class="cls-1" d="M19.17,41.43A1.56,1.56,0,0,0,17.69,43a1.5,1.5,0,0,0,1.59,1.43,1.46,1.46,0,0,0,1.42-1.49A1.5,1.5,0,0,0,19.17,41.43Z"/></svg>