<svg id="Layer_1" data-name="Layer 1" xmlns="http://www.w3.org/2000/svg" viewBox="0 0 78 66"><defs><style>.cls-1{fill:#fff;}.cls-2{fill:#27aae2;}.cls-3{fill:#ffca17;}.cls-4{fill:#ffc917;}</style></defs><title>Artboard 18</title><path d="M15.59,27.18c.05-.29.09-.57.14-.86a5.71,5.71,0,0,1,2.32-3.76l.1-.06a.62.62,0,0,0,.39-.52,16.75,16.75,0,0,1,1.33-4.48,17.19,17.19,0,0,1,3.49-5.07A17.59,17.59,0,0,1,27.83,9.2a16.91,16.91,0,0,1,3.45-1.38c.16-.05.32-.09.48-.15a.77.77,0,0,0,.41-.33,8.34,8.34,0,0,1,4.47-3.47c.51-.17,1-.23,1.58-.36a7.39,7.39,0,0,1,2.61-.07,10.13,10.13,0,0,1,1.89.42,8.39,8.39,0,0,1,2.56,1.35,7.62,7.62,0,0,1,2,2.29A1,1,0,0,0,48,8a21,21,0,0,1,3.58,1.45,17,17,0,0,1,3,2,13.21,13.21,0,0,1,3.19,3.71,12.55,12.55,0,0,1,1.41,3.58,19.26,19.26,0,0,1,.34,2.13,8.24,8.24,0,0,1,.07,1,.22.22,0,0,0,.18.24,4.86,4.86,0,0,1,3,2.74,6.85,6.85,0,0,1,.53,1.91,6.46,6.46,0,0,1-.2,2.73,5.35,5.35,0,0,1-2.34,3.24,4.39,4.39,0,0,1-2.4.64.35.35,0,0,0-.32.16,1.5,1.5,0,0,1-1.54.66c-.14,0-.18,0-.21.14a18.44,18.44,0,0,1-2.65,5.35,18.66,18.66,0,0,1-2.69,3,16.68,16.68,0,0,1-3.34,2.33c-.7.35-1.43.64-2.14.95l-.38.15a1.77,1.77,0,0,0,.17.14L48.5,47.7l3.56,1.73,3,1.46c1.08.51,2.16,1,3.23,1.55a2.24,2.24,0,0,1,1.21,1.8c.06.37.15.73.23,1.1.2.92.39,1.84.6,2.76.16.76.34,1.52.52,2.27s.27,1.27.41,1.9A.55.55,0,0,1,61,63H60.7c-.11-.11-.27-.19-.31-.32-.12-.42-.2-.85-.29-1.28s-.12-.69-.2-1-.25-.95-.35-1.43c-.17-.77-.31-1.54-.48-2.31s-.38-1.51-.51-2.28a1.46,1.46,0,0,0-.87-1.11l-3-1.43L50,49.54l-3.62-1.75-.3-.13a.28.28,0,0,0,.08.2l3.32,3.61a.64.64,0,0,1,.11.78c-.35.72-.69,1.44-1,2.16a.21.21,0,0,0,.08.32l1.47,1.05a.55.55,0,0,1,.26.76c-.28.86-.57,1.72-.86,2.57-.39,1.13-.8,2.25-1.19,3.38a.84.84,0,0,1-.37.51h-.32a.55.55,0,0,1-.28-.77c.07-.24.16-.47.24-.7.32-.87.65-1.74,1-2.62.13-.37.22-.76.34-1.14a4.91,4.91,0,0,1,.37-1c.13-.23.06-.32-.11-.43l-.71-.51c-.27-.2-.54-.41-.82-.6a.58.58,0,0,1-.22-.76l.45-.95c.26-.54.52-1.08.74-1.56-1.29-1.32-2.47-2.68-3.7-4,0,.05-.06.09-.06.14-.05.73-.09,1.46-.13,2.19,0,.18,0,.35,0,.53,0,.49-.09,1-.12,1.46s0,.89,0,1.34-.08.82-.12,1.24a9.32,9.32,0,0,0-.1,1c0,.36-.09.69-.08,1a8.66,8.66,0,0,1-.11,1.12c0,.24-.07.48-.09.73-.05.5-.09,1-.14,1.5,0,.3-.1.61-.14.91s-.11.82-.13,1.23a.58.58,0,0,1-.33.53H42.9a.53.53,0,0,1-.33-.62c0-.2.07-.4.1-.61.06-.52.11-1.05.17-1.58,0-.28.08-.56.1-.84.06-.59.11-1.19.17-1.79,0-.34.08-.68.11-1,.06-.68.1-1.35.15-2s.12-1.44.17-2.16c0-.25,0-.51,0-.74a11.38,11.38,0,0,1-7.7,0,1.47,1.47,0,0,0,0,.21c0,.48.09,1,.13,1.42l.24,2.48c.07.78.14,1.57.23,2.36s.18,1.61.28,2.41c.07.6.15,1.19.24,1.78a.55.55,0,0,1-.33.69h-.28a.51.51,0,0,1-.35-.39c0-.08,0-.16,0-.24-.08-.6-.17-1.2-.26-1.8,0-.29-.08-.57-.11-.86s0-.61-.08-.92c-.06-.56-.15-1.13-.21-1.7-.08-.72-.12-1.44-.19-2.15l-.24-2.24-.12-1.2a1.28,1.28,0,0,1,0-.19c0-.37,0-.74,0-1.11,0-.52-.09-1.05-.13-1.58,0-.2,0-.4-.07-.6l-.09,0-3.7,4c.19.41.4.83.59,1.24s.41.89.61,1.33a.46.46,0,0,1-.19.63c-.17.1-.28.37-.5.24a1.16,1.16,0,0,1-.18.24l-.94.7c-.09.06-.16.11-.11.26.2.56.36,1.14.57,1.7s.31,1,.5,1.52c.28.75.52,1.52.77,2.29.14.45.07.6-.29.81h-.27c-.11-.09-.25-.15-.3-.27a3.46,3.46,0,0,1-.25-.66c-.3-.89-.6-1.77-.89-2.66s-.62-1.88-.92-2.81a.56.56,0,0,1,.27-.77c.48-.36,1-.71,1.46-1.06a.22.22,0,0,0,.09-.33c-.36-.73-.7-1.47-1.05-2.2a.58.58,0,0,1,.1-.7L33,48.09c.12-.13.22-.26.33-.39a.19.19,0,0,0-.14,0l-1.72.84-3.23,1.6-4.94,2.4a.5.5,0,0,0-.3.32c-.29.87-.58,1.74-.88,2.6-.37,1.11-.74,2.21-1.1,3.32s-.78,2.39-1.17,3.58c-.09.26-.13.56-.46.66h-.28c-.11-.13-.27-.24-.31-.38a1,1,0,0,1,.05-.5c.31-.94.63-1.89.95-2.83.44-1.3.88-2.59,1.31-3.89.33-1,.66-2,1-3a1.12,1.12,0,0,1,.57-.69l3.77-1.82c1.44-.7,2.89-1.39,4.33-2.1l3-1.49.49-.25a1.58,1.58,0,0,0-.28-.15,15.42,15.42,0,0,1-2.48-1.14,17.66,17.66,0,0,1-5.16-4.42A.84.84,0,0,0,25.9,40c-.21-.07-.43-.09-.64-.16A5.74,5.74,0,0,1,22.34,38,6,6,0,0,1,21,35.23a16.12,16.12,0,0,1-.22-1.7c0-.21-.1-.24-.27-.24a4.46,4.46,0,0,1-1.8-.37A4.69,4.69,0,0,1,17,31.57a6,6,0,0,1-1.26-2.8c-.05-.28-.09-.57-.14-.85Zm12,13.09a17.26,17.26,0,0,0,3.81,3.26,16.12,16.12,0,0,0,4.3,1.87,13.71,13.71,0,0,0,2.56.44,15.71,15.71,0,0,0,3.69-.1c.64-.1,1.26-.26,1.89-.41a13.61,13.61,0,0,0,3-1.17,16.41,16.41,0,0,0,5-4A17.25,17.25,0,0,0,55.59,33c.16-.62.25-1.25.38-1.88,0-.14,0-.21-.16-.26A18,18,0,0,1,52.42,29a22.74,22.74,0,0,1-4.93-4.51,34.66,34.66,0,0,1-3.84-5.82c-.13-.23-.26-.47-.4-.74l-.1.16c-.27.48-.52,1-.81,1.45a17.28,17.28,0,0,1-6.4,6.05,27.49,27.49,0,0,1-2.49,1.24c-.75.33-1.53.6-2.31.86-.56.2-1.13.35-1.7.5s-1.29.34-1.93.48-1.28.23-1.92.33l-1.93.28c-.28,0-.34.1-.33.38s0,.5.05.75c.11.68.24,1.35.36,2a14.54,14.54,0,0,0,.84,2.8A17.55,17.55,0,0,0,26.66,39c.05.07.13.15.21.15.49,0,1,.05,1.48.05.2,0,.45,0,.58-.08s.1-.36.16-.55a1.61,1.61,0,0,1,1.65-1.31c1,0,2,0,3,0a1.32,1.32,0,0,1,.85.28A2,2,0,0,1,35.32,39a1.84,1.84,0,0,1-1.86,2.22c-.88,0-1.77,0-2.66,0a1.54,1.54,0,0,1-1.5-.83c-.1-.2-.25-.21-.44-.18a5.63,5.63,0,0,1-.59,0Zm12.69-19.6,0,0a1.68,1.68,0,0,1,.15-.3c.14-.19.33-.36.46-.56.26-.39.5-.79.73-1.2s.61-1.06.86-1.62.4-1,.58-1.56.25-.81.37-1.22.18-.64.25-1,.14-.8.21-1.2c0-.11,0-.19-.13-.22-.52-.11-1.05-.24-1.58-.34a12.34,12.34,0,0,0-2.43-.22c-.24,0-.49,0-.73,0a6,6,0,0,0-1.12.1,13.1,13.1,0,0,0-1.85.35c-.31.11-.64.15-.94.25s-.59.16-.88.29c-.49.22-1,.38-1.48.65-.29.16-.61.28-.9.45a18.26,18.26,0,0,0-2.59,1.86,15.82,15.82,0,0,0-2.19,2.29c-.34.44-.68.87-1,1.34a16.84,16.84,0,0,0-2.05,4.43c-.11.37-.22.74-.31,1.11-.12.56-.23,1.13-.33,1.69a8.2,8.2,0,0,0-.1.85,11.89,11.89,0,0,1-.08,1.2c0,.23.07.25.21.24s.51-.07.77-.11c.42-.06.84-.11,1.25-.18L27,27.79c.34-.07.68-.12,1-.2s.92-.24,1.38-.37.75-.18,1.11-.31.91-.33,1.36-.51.66-.22,1-.36c.72-.34,1.44-.67,2.14-1a17,17,0,0,0,1.55-.91c.57-.38,1.11-.8,1.64-1.23a8.82,8.82,0,0,0,.84-.78c.31-.3.6-.62.9-.93Zm14-.44c-.12-.07-.26-.1-.32-.19-.21-.33-.39-.69-.6-1A11.06,11.06,0,0,0,52.65,18a16.52,16.52,0,0,0-2.21-2.44,14.68,14.68,0,0,0-1.7-1.36c-.18-.12-.34-.27-.51-.39s-.27-.13-.39-.2-.51-.29-.76-.44a4.17,4.17,0,0,0-.46-.26c-.38-.17-.76-.33-1.15-.48a4.54,4.54,0,0,0-.5-.12c0,.12,0,.23-.08.34-.1.51-.19,1-.31,1.53s-.24.88-.37,1.31-.26.76-.39,1.14a.3.3,0,0,0,0,.21,10.52,10.52,0,0,0,.45,1c.3.56.6,1.11.93,1.65s.81,1.33,1.23,2c.23.36.49.71.74,1.06s.69,1,1.08,1.42c.56.64,1.14,1.27,1.76,1.86s1.19,1.1,1.81,1.61,1,.71,1.5,1.07c.14.1.25.25.39.29a.83.83,0,0,1,.55.36.23.23,0,0,0,.1.05,1.09,1.09,0,0,1,.26.05,4.56,4.56,0,0,0,.39.27c.19.09.4.12.58.21a1.87,1.87,0,0,1,.31.27l.22-.15a2.5,2.5,0,0,0,0-.35c0-.81,0-1.63-.07-2.44a16.61,16.61,0,0,0-.3-1.83,11,11,0,0,0-.29-1.29c-.21-.73-.44-1.45-.7-2.16a11.36,11.36,0,0,0-.56-1.17C54.17,20.39,54.11,20.28,54.3,20.23ZM19.57,21.92l.57-.05a3.76,3.76,0,0,1,.75,0,.59.59,0,0,0,.45-.09,1.55,1.55,0,0,1,1.95.14c.11.11.16.13.24-.05.32-.74.63-1.5,1-2.22a16.9,16.9,0,0,1,4.31-5.34c.63-.53,1.34-1,2-1.47a.41.41,0,0,0,.21-.43,8.42,8.42,0,0,1,.18-2.83c.06-.24.1-.47.17-.76A18.59,18.59,0,0,0,26,11.52a16.13,16.13,0,0,0-5.93,8.22A10.48,10.48,0,0,0,19.57,21.92ZM48.08,9.05c.07.46.11.87.2,1.28a9.23,9.23,0,0,1,.06,2.1c0,.15,0,.25.16.35a17.29,17.29,0,0,1,4.43,3.88,18.65,18.65,0,0,1,2.87,4.89c.05.12.07.2.23.12a1.59,1.59,0,0,1,1.69.15.48.48,0,0,0,.26.06c.15,0,.29-.05.43-.06s.19-.07.18-.2A13.73,13.73,0,0,0,58,18.26a12,12,0,0,0-1.6-3.39,13.17,13.17,0,0,0-3.68-3.57A19.72,19.72,0,0,0,49,9.37ZM20.54,22.79a3.71,3.71,0,0,0-2.24.87,5.06,5.06,0,0,0-1.64,3.13,5.32,5.32,0,0,0,.05,1.91,5,5,0,0,0,.78,1.85,3.76,3.76,0,0,0,2.25,1.65,2.55,2.55,0,0,0,1.23,0c.44-.1.57,0,.73.44a.56.56,0,0,0,.09.21c.19.23.46.37.7.13a.9.9,0,0,0,.18-.71c0-.43-.12-.85-.17-1.27-.07-.73-.15-1.45-.17-2.18a16.27,16.27,0,0,1,0-1.71,8.55,8.55,0,0,1,.09-.87q.08-.6.18-1.2c.07-.37.16-.74.24-1.12.05-.22.18-.44,0-.66-.05-.05-.05-.17-.06-.26a.62.62,0,0,0-.42-.53c-.21-.1-.37,0-.51.16l-.14.16a.57.57,0,0,1-.64.14C20.9,22.9,20.71,22.85,20.54,22.79Zm41.84,4.69c0-.23,0-.53-.08-.82a5.22,5.22,0,0,0-1.07-2.44,3.41,3.41,0,0,0-3-1.36.63.63,0,0,0-.23.08.56.56,0,0,1-.71-.11c0-.06-.09-.12-.15-.18a.51.51,0,0,0-.64,0c-.23.14-.18.32-.13.53a10.61,10.61,0,0,1,.36,1.34c.16.88.29,1.77.38,2.65a16,16,0,0,1,0,3.46c-.1.78-.27,1.55-.4,2.32,0,.07,0,.17,0,.2a.24.24,0,0,0,.22,0,.65.65,0,0,0,.4-.45c.12-.4.27-.49.69-.42a3.52,3.52,0,0,0,.56,0,3.16,3.16,0,0,0,2.09-.79A5.13,5.13,0,0,0,62.38,27.48ZM46.81,8.64l-.41-.1c-.21-.06-.42-.15-.64-.2s-.52-.08-.78-.13c-.57-.11-1.13-.24-1.71-.34s-1-.12-1.5-.17-.7-.1-1.05-.11c-.62,0-1.24,0-1.87,0a7.7,7.7,0,0,0-1,0c-.64.06-1.28.14-1.92.22-.48.06-1,.11-1.44.2s-1.08.23-1.62.37a.47.47,0,0,0-.27.21,5.87,5.87,0,0,0-.6,2.6c0,.25,0,.51,0,.76a.25.25,0,0,0,.08.15s.1,0,.14,0l.65-.32c.38-.16.77-.33,1.17-.46.69-.23,1.39-.45,2.09-.63a10,10,0,0,1,1.24-.19c.6-.07,1.2-.16,1.8-.18a14.91,14.91,0,0,1,1.89,0c.69.06,1.38.18,2.08.3.37.06.73.19,1.11.26s.7.26,1.06.35a7.36,7.36,0,0,1,1,.41l1,.45A7.17,7.17,0,0,0,46.81,8.64Zm-11.17,40h0c0,.42.09.84.09,1.27a.77.77,0,0,0,.44.7l.3.15a7.12,7.12,0,0,0,2.8.54,22.78,22.78,0,0,0,2.34-.13,3.42,3.42,0,0,0,1.7-.65.8.8,0,0,0,.37-.74c0-.61,0-1.23.05-1.85,0-.42,0-.84.08-1.26,0-.17-.05-.25-.22-.22-.5.09-1,.21-1.49.26-.72.09-1.45.15-2.17.19-.44,0-.88,0-1.32,0A12.54,12.54,0,0,1,36,46.48c-.34-.08-.58,0-.53.45C35.54,47.5,35.58,48.06,35.64,48.63ZM46.13,7.16c-.28,0-.41-.17-.54-.32a5.64,5.64,0,0,0-1.15-1,9.27,9.27,0,0,0-1.3-.74,9.6,9.6,0,0,0-1.66-.58A8.82,8.82,0,0,0,40,4.37a6.71,6.71,0,0,0-2.14.19,15.27,15.27,0,0,0-1.83.64,6,6,0,0,0-.95.54,6,6,0,0,0-.85.66c-.25.22-.45.48-.71.75.09,0,.12,0,.16,0L34.9,7c.45-.07.9-.16,1.35-.21.64-.07,1.28-.13,1.92-.15s1.54,0,2.31,0c.4,0,.8.07,1.21.11.61.07,1.23.13,1.84.21.39.05.78.13,1.17.21s.73.19,1.09.26a1.87,1.87,0,0,0,.4,0ZM34.37,39.31l0,0a1.51,1.51,0,0,0,0-.3c-.08-.37-.28-.71-.68-.7h-2.9a.57.57,0,0,0-.55.31,1.16,1.16,0,0,0,0,1.23.74.74,0,0,0,.43.33,6.52,6.52,0,0,0,1.08.06c.65,0,1.29,0,1.94,0a.57.57,0,0,0,.55-.31A4.63,4.63,0,0,0,34.37,39.31Zm-12.53-5.1a5.94,5.94,0,0,0,1.26,3.14,4.74,4.74,0,0,0,2.12,1.45c0-.09,0-.14-.08-.19a19.38,19.38,0,0,1-2-4.55.19.19,0,0,0-.16-.1Z"/><path class="cls-1" d="M47.9,63a.84.84,0,0,0,.37-.51c.39-1.13.8-2.25,1.19-3.38.29-.85.58-1.71.86-2.57a.55.55,0,0,0-.26-.76l-1.47-1.05a.21.21,0,0,1-.08-.32c.34-.72.68-1.44,1-2.16a.64.64,0,0,0-.11-.78l-3.32-3.61a.28.28,0,0,1-.08-.2l.3.13L50,49.54l4.73,2.27,3,1.43a1.46,1.46,0,0,1,.87,1.11c.13.77.34,1.52.51,2.28s.31,1.54.48,2.31c.1.48.24,1,.35,1.43s.13.69.2,1,.17.86.29,1.28c0,.13.2.21.31.32Z"/><path class="cls-1" d="M19.39,63c.33-.1.37-.4.46-.66.39-1.19.77-2.39,1.17-3.58s.73-2.21,1.1-3.32c.3-.86.59-1.73.88-2.6a.5.5,0,0,1,.3-.32l4.94-2.4,3.23-1.6,1.72-.84a.19.19,0,0,1,.14,0c-.11.13-.21.26-.33.39l-3.18,3.45a.58.58,0,0,0-.1.7c.35.73.69,1.47,1.05,2.2a.22.22,0,0,1-.09.33c-.49.35-1,.7-1.46,1.06a.56.56,0,0,0-.27.77c.3.93.61,1.87.92,2.81s.59,1.77.89,2.66a3.46,3.46,0,0,0,.25.66c0,.12.19.18.3.27Z"/><path class="cls-1" d="M36.64,63a.55.55,0,0,0,.33-.69c-.09-.59-.17-1.18-.24-1.78-.1-.8-.19-1.61-.28-2.41s-.16-1.58-.23-2.36L36,53.28c0-.47-.09-.94-.13-1.42a1.47,1.47,0,0,1,0-.21,11.38,11.38,0,0,0,7.7,0c0,.23,0,.49,0,.74,0,.72-.12,1.44-.17,2.16s-.09,1.34-.15,2c0,.34-.08.68-.11,1-.06.6-.11,1.2-.17,1.79,0,.28-.07.56-.1.84-.06.53-.11,1.06-.17,1.58,0,.21-.06.41-.1.61a.53.53,0,0,0,.33.62Z"/><path class="cls-2" d="M31.58,63c.36-.21.43-.36.29-.81-.25-.77-.49-1.54-.77-2.29-.19-.5-.32-1-.5-1.52s-.37-1.14-.57-1.7c-.05-.15,0-.2.11-.26l.94-.7a1.16,1.16,0,0,0,.18-.24c.22.13.33-.14.5-.24a.46.46,0,0,0,.19-.63c-.2-.44-.4-.89-.61-1.33s-.4-.83-.59-1.24l3.7-4,.09,0c0,.2.05.4.07.6,0,.53.09,1.06.13,1.58,0,.37,0,.74,0,1.11a1.28,1.28,0,0,0,0,.19l.12,1.2.24,2.24c.07.71.11,1.43.19,2.15.06.57.15,1.14.21,1.7,0,.31,0,.61.08.92s.07.57.11.86c.09.6.18,1.2.26,1.8,0,.08,0,.16,0,.24a.51.51,0,0,0,.35.39Z"/><path class="cls-2" d="M43.22,63a.58.58,0,0,0,.33-.53c0-.41.08-.82.13-1.23s.1-.61.14-.91c0-.5.09-1,.14-1.5,0-.25.06-.49.09-.73A8.66,8.66,0,0,0,44.16,57c0-.36.1-.69.08-1a9.32,9.32,0,0,1,.1-1c0-.42.09-.83.12-1.24s0-.9,0-1.34.09-1,.12-1.46c0-.18,0-.35,0-.53,0-.73.08-1.46.13-2.19,0,0,0-.09.06-.14,1.23,1.31,2.41,2.67,3.7,4-.22.48-.48,1-.74,1.56l-.45.95a.58.58,0,0,0,.22.76c.28.19.55.4.82.6l.71.51c.17.11.24.2.11.43a4.91,4.91,0,0,0-.37,1c-.12.38-.21.77-.34,1.14-.31.88-.64,1.75-1,2.62-.08.23-.17.46-.24.7a.55.55,0,0,0,.28.77Z"/><path class="cls-1" d="M27.63,40.27l.64,0a5.63,5.63,0,0,0,.59,0c.19,0,.34,0,.44.18a1.54,1.54,0,0,0,1.5.83c.89,0,1.78,0,2.66,0A1.84,1.84,0,0,0,35.32,39a2,2,0,0,0-.74-1.39,1.32,1.32,0,0,0-.85-.28c-1,0-2,0-3,0a1.61,1.61,0,0,0-1.65,1.31c-.06.19,0,.45-.16.55s-.38.08-.58.08c-.5,0-1,0-1.48-.05-.08,0-.16-.08-.21-.15a17.55,17.55,0,0,1-2.08-3.77,14.54,14.54,0,0,1-.84-2.8c-.12-.68-.25-1.35-.36-2,0-.25,0-.5-.05-.75s.05-.35.33-.38L25.59,29c.64-.1,1.28-.2,1.92-.33s1.29-.31,1.93-.48,1.14-.3,1.7-.5c.78-.26,1.56-.53,2.31-.86a27.49,27.49,0,0,0,2.49-1.24,17.28,17.28,0,0,0,6.4-6.05c.29-.47.54-1,.81-1.45l.1-.16c.14.27.27.51.4.74a34.66,34.66,0,0,0,3.84,5.82A22.74,22.74,0,0,0,52.42,29a18,18,0,0,0,3.39,1.79c.12.05.19.12.16.26-.13.63-.22,1.26-.38,1.88a17.25,17.25,0,0,1-3.66,7.17,16.41,16.41,0,0,1-5,4,13.61,13.61,0,0,1-3,1.17c-.63.15-1.25.31-1.89.41a15.71,15.71,0,0,1-3.69.1,13.71,13.71,0,0,1-2.56-.44,16.12,16.12,0,0,1-4.3-1.87A17.26,17.26,0,0,1,27.63,40.27Z"/><path class="cls-3" d="M40.32,20.67l-.45.48c-.3.31-.59.63-.9.93a8.82,8.82,0,0,1-.84.78c-.53.43-1.07.85-1.64,1.23a17,17,0,0,1-1.55.91c-.7.37-1.42.7-2.14,1-.32.14-.65.24-1,.36s-.9.36-1.36.51-.74.21-1.11.31-.92.26-1.38.37-.67.13-1,.2l-1.43.28c-.41.07-.83.12-1.25.18-.26,0-.51.09-.77.11s-.24,0-.21-.24a11.89,11.89,0,0,0,.08-1.2,8.2,8.2,0,0,1,.1-.85c.1-.56.21-1.13.33-1.69.09-.37.2-.74.31-1.11a16.84,16.84,0,0,1,2.05-4.43c.3-.47.64-.9,1-1.34a15.82,15.82,0,0,1,2.19-2.29,18.26,18.26,0,0,1,2.59-1.86c.29-.17.61-.29.9-.45.48-.27,1-.43,1.48-.65.29-.13.59-.19.88-.29s.63-.14.94-.25A13.1,13.1,0,0,1,38,11.36a6,6,0,0,1,1.12-.1c.24,0,.49,0,.73,0a12.34,12.34,0,0,1,2.43.22c.53.1,1.06.23,1.58.34.14,0,.15.11.13.22-.07.4-.13.8-.21,1.2s-.16.65-.25,1-.24.82-.37,1.22-.35,1.06-.58,1.56S42,18.1,41.7,18.63s-.47.81-.73,1.2c-.13.2-.32.37-.46.56a1.68,1.68,0,0,0-.15.3Z"/><path class="cls-4" d="M54.3,20.23c-.19.05-.13.16-.06.29a11.36,11.36,0,0,1,.56,1.17c.26.71.49,1.43.7,2.16a11,11,0,0,1,.29,1.29,16.61,16.61,0,0,1,.3,1.83c.07.81,0,1.63.07,2.44a2.5,2.5,0,0,1,0,.35l-.22.15a1.87,1.87,0,0,0-.31-.27c-.18-.09-.39-.12-.58-.21a4.56,4.56,0,0,1-.39-.27,1.09,1.09,0,0,0-.26-.05.23.23,0,0,1-.1-.05.83.83,0,0,0-.55-.36c-.14,0-.25-.19-.39-.29-.5-.36-1-.69-1.5-1.07S50.58,26.29,50,25.73s-1.2-1.22-1.76-1.86c-.39-.45-.73-.94-1.08-1.42s-.51-.7-.74-1.06c-.42-.66-.83-1.32-1.23-2s-.63-1.09-.93-1.65a10.52,10.52,0,0,1-.45-1,.3.3,0,0,1,0-.21c.13-.38.27-.76.39-1.14s.27-.87.37-1.31.21-1,.31-1.53c0-.11,0-.22.08-.34a4.54,4.54,0,0,1,.5.12c.39.15.77.31,1.15.48a4.17,4.17,0,0,1,.46.26c.25.15.5.3.76.44s.26.12.39.2.33.27.51.39a14.68,14.68,0,0,1,1.7,1.36A16.52,16.52,0,0,1,52.65,18,11.06,11.06,0,0,1,53.38,19c.21.34.39.7.6,1C54,20.13,54.18,20.16,54.3,20.23Z"/><path class="cls-1" d="M20.54,22.79c.17.06.36.11.53.18a.57.57,0,0,0,.64-.14l.14-.16c.14-.13.3-.26.51-.16a.62.62,0,0,1,.42.53c0,.09,0,.21.06.26.22.22.09.44,0,.66-.08.38-.17.75-.24,1.12s-.13.8-.18,1.2a8.55,8.55,0,0,0-.09.87,16.27,16.27,0,0,0,0,1.71c0,.73.1,1.45.17,2.18.05.42.16.84.17,1.27a.9.9,0,0,1-.18.71c-.24.24-.51.1-.7-.13a.56.56,0,0,1-.09-.21c-.16-.44-.29-.54-.73-.44a2.55,2.55,0,0,1-1.23,0,3.76,3.76,0,0,1-2.25-1.65,5,5,0,0,1-.78-1.85,5.32,5.32,0,0,1-.05-1.91,5.06,5.06,0,0,1,1.64-3.13A3.71,3.71,0,0,1,20.54,22.79Z"/><path class="cls-1" d="M62.38,27.48a5.13,5.13,0,0,1-1.74,4,3.16,3.16,0,0,1-2.09.79,3.52,3.52,0,0,1-.56,0c-.42-.07-.57,0-.69.42a.65.65,0,0,1-.4.45.24.24,0,0,1-.22,0s-.06-.13,0-.2c.13-.77.3-1.54.4-2.32a16,16,0,0,0,0-3.46c-.09-.88-.22-1.77-.38-2.65a10.61,10.61,0,0,0-.36-1.34c0-.21-.1-.39.13-.53a.51.51,0,0,1,.64,0c.06.06.1.12.15.18a.56.56,0,0,0,.71.11.63.63,0,0,1,.23-.08,3.41,3.41,0,0,1,3,1.36,5.22,5.22,0,0,1,1.07,2.44C62.35,27,62.36,27.25,62.38,27.48Z"/><path class="cls-1" d="M46.81,8.64a7.17,7.17,0,0,1,.56,3.47l-1-.45a7.36,7.36,0,0,0-1-.41c-.36-.09-.69-.28-1.06-.35s-.74-.2-1.11-.26c-.7-.12-1.39-.24-2.08-.3a14.91,14.91,0,0,0-1.89,0c-.6,0-1.2.11-1.8.18a10,10,0,0,0-1.24.19c-.7.18-1.4.4-2.09.63-.4.13-.79.3-1.17.46l-.65.32s-.11.05-.14,0A.25.25,0,0,1,32,12c0-.25,0-.51,0-.76a5.87,5.87,0,0,1,.6-2.6.47.47,0,0,1,.27-.21c.54-.14,1.07-.27,1.62-.37s1-.14,1.44-.2c.64-.08,1.28-.16,1.92-.22a7.7,7.7,0,0,1,1,0c.63,0,1.25,0,1.87,0,.35,0,.7.07,1.05.11s1,.09,1.5.17,1.14.23,1.71.34c.26,0,.52.07.78.13s.43.14.64.2Z"/><path class="cls-1" d="M35.64,48.63c-.06-.57-.1-1.13-.17-1.7,0-.41.19-.53.53-.45a12.54,12.54,0,0,0,2.58.37c.44,0,.88.06,1.32,0,.72,0,1.45-.1,2.17-.19.5-.05,1-.17,1.49-.26.17,0,.23.05.22.22,0,.42-.06.84-.08,1.26,0,.62-.07,1.24-.05,1.85a.8.8,0,0,1-.37.74,3.42,3.42,0,0,1-1.7.65,22.78,22.78,0,0,1-2.34.13,7.12,7.12,0,0,1-2.8-.54l-.3-.15a.77.77,0,0,1-.44-.7c0-.43-.06-.85-.09-1.27Z"/><path class="cls-1" d="M46.13,7.16l.06.2a1.87,1.87,0,0,1-.4,0c-.36-.07-.72-.18-1.09-.26s-.78-.16-1.17-.21c-.61-.08-1.23-.14-1.84-.21-.41,0-.81-.1-1.21-.11-.77,0-1.54,0-2.31,0s-1.28.08-1.92.15c-.45.05-.9.14-1.35.21l-1.2.2s-.07,0-.16,0c.26-.27.46-.53.71-.75a6,6,0,0,1,.85-.66,6,6,0,0,1,.95-.54,15.27,15.27,0,0,1,1.83-.64A6.71,6.71,0,0,1,40,4.37a8.82,8.82,0,0,1,1.46.17,9.6,9.6,0,0,1,1.66.58,9.27,9.27,0,0,1,1.3.74,5.64,5.64,0,0,1,1.15,1C45.72,7,45.85,7.21,46.13,7.16Z"/><path class="cls-1" d="M34.37,39.31a4.63,4.63,0,0,1-.21.56.57.57,0,0,1-.55.31c-.65,0-1.29,0-1.94,0a6.52,6.52,0,0,1-1.08-.06.74.74,0,0,1-.43-.33,1.16,1.16,0,0,1,0-1.23.57.57,0,0,1,.55-.31h2.9c.4,0,.6.33.68.7a1.51,1.51,0,0,1,0,.3Z"/><path class="cls-1" d="M21.84,34.21l1.1-.25a.19.19,0,0,1,.16.1,19.38,19.38,0,0,0,2,4.55s0,.1.08.19a4.74,4.74,0,0,1-2.12-1.45A5.94,5.94,0,0,1,21.84,34.21Z"/></svg>