<svg id="Layer_1" data-name="Layer 1" xmlns="http://www.w3.org/2000/svg" viewBox="0 0 34 34"><defs><style>.cls-1{fill:#4b679e;}</style></defs><title>Artboard 122</title><path class="cls-1" d="M30.7,4.5V29.6c-.2,0-.1.2-.2.2A1.7,1.7,0,0,1,28.8,31H22.7c-.3,0-.4,0-.4-.3.1-3.4.1-6.9,0-10.3,0-.2.1-.3.4-.3h2.9c.2,0,.3,0,.4-.3s.3-2.6.5-3.9,0-.3-.3-.3H22.7c-.3,0-.4-.1-.4-.4a26.2,26.2,0,0,0,0-2.8A1.5,1.5,0,0,1,23.8,11h2.8c.1,0,.2,0,.2-.2V7c.1-.2,0-.2-.2-.2H24.8a16.7,16.7,0,0,0-3.2.2,4.7,4.7,0,0,0-3.7,4.5v3.7c.1.3,0,.4-.3.4H14.3c-.3,0-.3,0-.3.3v3.9c0,.3,0,.3.3.3h3.3c.2,0,.3,0,.3.3V30.7c0,.3,0,.3-.2.3H4.6a1.7,1.7,0,0,1-1.8-1.2V4.4L3,3.8A1.9,1.9,0,0,1,4.1,3H29.2A2.2,2.2,0,0,1,30.7,4.5Z"/></svg>