<svg id="Layer_1" data-name="Layer 1" xmlns="http://www.w3.org/2000/svg" viewBox="0 0 78 66"><defs><style>.cls-1{fill:#27aae2;}.cls-2{fill:#fff;}.cls-3{fill:#ffc816;}</style></defs><title>Artboard 16</title><path d="M55.64,63.37c0-2.91,0-5.81,0-8.72a6.83,6.83,0,0,0-.43-2.4,8.4,8.4,0,0,0-2-3L53,49l.79-.22c1.08-.31,2.17-.6,3.25-.92a1.41,1.41,0,0,0,1-1.4V44.7c0-.08,0-.17,0-.27a8.44,8.44,0,0,0,3,.52,8.91,8.91,0,0,0,3-.6.69.69,0,0,1,0,.16c0,.65,0,1.3,0,1.94a1.45,1.45,0,0,0,1.1,1.45l2.39.68,3.79,1.07a.49.49,0,0,1,.26.21c.54,1,1.06,2.1,1.59,3.15.65,1.27,1.31,2.54,2,3.8a.73.73,0,0,0,.34.31.46.46,0,0,0,.58-.18.58.58,0,0,0,0-.7l-3.59-7a1,1,0,0,0-.65-.56l-.68-.2-5.67-1.6a.42.42,0,0,1-.36-.46c0-.8,0-1.61,0-2.41a.39.39,0,0,1,.16-.28,10.27,10.27,0,0,0,2.36-2,12.23,12.23,0,0,0,2.61-5.07,10.85,10.85,0,0,0,.39-2.78c0-.52,0-1,0-1.56a21.22,21.22,0,0,0-.33-2.24,11.73,11.73,0,0,0-2.11-4.64,9.46,9.46,0,0,0-5.2-3.67,8.22,8.22,0,0,0-4.48.05,9.15,9.15,0,0,0-4,2.43c-.31.32-.62.67-.95,1,0-.11,0-.19,0-.26l.09-2.49a1.31,1.31,0,0,1,.18-.86s0-.11,0-.16l.33-2.74c.11-.91.22-1.82.34-2.73.14-1.16.29-2.32.42-3.49a1.52,1.52,0,0,0,0-.6,22.56,22.56,0,0,0-.79-2.27,11.31,11.31,0,0,0-4.75-5.38,16.05,16.05,0,0,0-5.29-1.9A26.23,26.23,0,0,0,40.49,2l-.57-.05h-2a.83.83,0,0,1-.15,0,6.08,6.08,0,0,0-3,1.14A7,7,0,0,0,32.91,5a.26.26,0,0,1-.37.13A2.7,2.7,0,0,0,31.9,5a5.91,5.91,0,0,0-2.67.29,11.44,11.44,0,0,0-3.34,1.6,5.73,5.73,0,0,0-2.26,3.31,8.59,8.59,0,0,0-.22,2.37c0,.33,0,.65,0,1q0,.86.12,1.71c.05.73.11,1.46.18,2.18.08,1,.16,2.08.26,3.12,0,.32.11.64.17,1a2.56,2.56,0,0,1,.1.34c0,.66.05,1.33.07,2v.87l-.08,0a2,2,0,0,0-.16-.24,9.15,9.15,0,0,0-5.5-2.95,7.94,7.94,0,0,0-3.46.26,9.46,9.46,0,0,0-5,3.69,13.1,13.1,0,0,0-2.39,8.79,12.75,12.75,0,0,0,.79,3.65A11.1,11.1,0,0,0,13,43.71a.38.38,0,0,1,.16.24c0,.82,0,1.63,0,2.45a.44.44,0,0,1-.37.47c-.36.08-.71.19-1.07.29-1.7.48-3.39,1-5.09,1.44a1.3,1.3,0,0,0-.9.73c-.83,1.68-1.66,3.35-2.52,5-.33.64-.74,1.25-1.11,1.87a.62.62,0,0,0-.05.7A.54.54,0,0,0,3,56.86a30.12,30.12,0,0,0,1.89-3.38c.6-1.21,1.21-2.42,1.84-3.62a.56.56,0,0,1,.32-.24c.57-.17,1.13-.31,1.7-.47l4.37-1.24a1.42,1.42,0,0,0,1.12-1.4c0-.62,0-1.24,0-1.87v-.3a8.53,8.53,0,0,0,6.11.09c0,.13,0,.22,0,.31,0,.6,0,1.2,0,1.79a1.34,1.34,0,0,0,1,1.33c.92.28,1.85.53,2.77.79l.59.18-.18.19c-.36.39-.75.76-1.08,1.18A6.93,6.93,0,0,0,22,54.53c0,3,0,5.93,0,8.89a.65.65,0,0,0,.25.58h.53a.69.69,0,0,0,.28-.65c0-2.87,0-5.74,0-8.6a6.17,6.17,0,0,1,1.41-3.91A10.8,10.8,0,0,1,27.91,48a17.15,17.15,0,0,1,4.33-1.63l1.7-.4a1.17,1.17,0,0,1-.1.2,6.5,6.5,0,0,0-1,4.4A10.81,10.81,0,0,0,34,54.29c.27.54.62.61,1.07.2l3-2.74.41-.36.07,0v.51q0,5.56,0,11.13v.24a.48.48,0,0,0,.51.52.5.5,0,0,0,.56-.49c0-.23,0-.46,0-.68q0-5.45,0-10.89c0-.07,0-.15,0-.23l.1-.08a1.1,1.1,0,0,0,.15.26l2.82,2.84a.55.55,0,0,0,.95-.14A10.37,10.37,0,0,0,45,50.21a6.14,6.14,0,0,0-.89-4s0,0,0-.09l.84.16a19.9,19.9,0,0,1,4.55,1.62,10.37,10.37,0,0,1,4.11,3.49,5.79,5.79,0,0,1,1,3.12c0,2.68,0,5.37,0,8.06,0,.34,0,.68,0,1,0,.15.16.28.25.42h.54A.64.64,0,0,0,55.64,63.37ZM53.87,27c.1-.05.16-.19.23-.3A9.14,9.14,0,0,1,58,23.21a7.15,7.15,0,0,1,3-.66,7.61,7.61,0,0,1,5.28,2.18,10.89,10.89,0,0,1,3.24,6,12.22,12.22,0,0,1,.09,4.43,11.31,11.31,0,0,1-2.78,6,7.93,7.93,0,0,1-4.58,2.62A7.11,7.11,0,0,1,57,42.68a10,10,0,0,1-4-5c-.12-.31-.28-.61-.42-.91a.37.37,0,0,1,0-.18c.23-.85.49-1.69.66-2.55a14.57,14.57,0,0,0,.14-1.87c0-.51,0-1,.06-1.53s0-.82,0-1.23l.06-1.55c0-.14,0-.28,0-.41S53.62,27.09,53.87,27ZM35.67,3.77A4.33,4.33,0,0,1,38.08,3c1.06,0,2.12,0,3.18.07a19,19,0,0,1,3.67.53A12.29,12.29,0,0,1,51.24,7a11.06,11.06,0,0,1,2.43,4c.1.3.17.61.29.89a2.29,2.29,0,0,1,0,1.22c-.1.85-.22,1.69-.32,2.54s-.24,2-.35,2.93c0,.27-.07.54-.1.8H53.1l-2.16-4.57a1.73,1.73,0,0,1-.14-.31.56.56,0,0,0-.86-.37c-.57.24-1.15.49-1.74.72a17.94,17.94,0,0,1-3.53,1c-.65.1-1.31.17-2,.23a9.08,9.08,0,0,1-1.28,0c-.74,0-1.48-.12-2.22-.16a8.56,8.56,0,0,1-3.32-.9,5.42,5.42,0,0,1-2-1.55,5.65,5.65,0,0,1-1-2.25,8.82,8.82,0,0,1-.15-2A6.43,6.43,0,0,1,35.67,3.77ZM24.52,11.58A4.83,4.83,0,0,1,27,7.39a10.37,10.37,0,0,1,3.53-1.34,3.08,3.08,0,0,1,1.6.08c-.09.28-.18.56-.28.84a7.85,7.85,0,0,0-.31,2.1,7.76,7.76,0,0,0,.25,2.67,16.41,16.41,0,0,0,.63,1.59.24.24,0,0,1,0,.31A7.32,7.32,0,0,1,29,15.71a3.66,3.66,0,0,1-1.77-.09c-.52-.13-.69,0-.91.44-.4.9-.81,1.8-1.22,2.69a.91.91,0,0,1-.13.2c0-.34-.07-.63-.09-.91-.1-1.21-.23-2.41-.29-3.62C24.49,13.48,24.49,12.53,24.52,11.58Zm-5.88,32.2a7.19,7.19,0,0,1-5-1,9.54,9.54,0,0,1-3.63-4A12.12,12.12,0,0,1,8.8,34.87c-.07-.56-.09-1.11-.11-1.49A12.16,12.16,0,0,1,11,26a8.57,8.57,0,0,1,3.94-3,7,7,0,0,1,3.52-.38,8.28,8.28,0,0,1,5.19,3.07c.18.21.33.44.5.65a1.45,1.45,0,0,1,.27,1.09,9.75,9.75,0,0,0,0,1.08c0,.45,0,.89,0,1.34s.07,1.06.09,1.59,0,1.08,0,1.62a11.57,11.57,0,0,0,.84,3.71,1.3,1.3,0,0,1-.11,1.06,10.5,10.5,0,0,1-2.74,4A7.88,7.88,0,0,1,18.64,43.78Zm13.71,1.46a19.66,19.66,0,0,0-4.46,1.55c-.65.33-1.27.73-1.91,1.09a.48.48,0,0,1-.33.06c-1.28-.35-2.56-.72-3.83-1.08a.43.43,0,0,1-.36-.47c0-.75,0-1.51,0-2.26a.35.35,0,0,1,.14-.27,11,11,0,0,0,4.55-5.16.22.22,0,0,1,.05-.08l.05,0a17.79,17.79,0,0,0,6.27,6.57A.6.6,0,0,1,32.35,45.24Zm2.36,8.09c-.19-.62-.39-1.17-.54-1.74A7.09,7.09,0,0,1,34,49.25a5,5,0,0,1,1-2.69l.15-.17.06,0a5.05,5.05,0,0,1,.06.67,2,2,0,0,0,.34,1.08,6.09,6.09,0,0,0,2,1.9l.39.25Zm4.55-3.8a.4.4,0,0,1-.35,0,6.54,6.54,0,0,1-2.21-1.65,3.63,3.63,0,0,1-.43-.83c0-.08,0-.18,0-.3a10.65,10.65,0,0,0,5.63,0,3.92,3.92,0,0,1-.13.62,2.93,2.93,0,0,1-1,1.21C40.26,48.92,39.76,49.23,39.26,49.53Zm4.53,1.13a9.88,9.88,0,0,1-.67,2.27,2.89,2.89,0,0,1-.15.31l-2.9-2.88.42-.28a6.9,6.9,0,0,0,1.88-1.61,2.64,2.64,0,0,0,.57-1.69.29.29,0,0,1,.06-.2,5,5,0,0,1,.31.49A5.5,5.5,0,0,1,43.79,50.66Zm.51-6.08A12.22,12.22,0,0,1,40.41,46a11.84,11.84,0,0,1-1.19.12,11,11,0,0,1-4.88-1.21,16.08,16.08,0,0,1-6.77-6.12A12.15,12.15,0,0,1,26,34.82a15.82,15.82,0,0,1-.31-1.93c-.07-.9-.05-1.8-.08-2.7,0-.54-.06-1.08-.08-1.62,0-.74,0-1.48-.05-2.22s-.07-1.39-.09-2.08c0-.91,0-1.83-.08-2.74a3.26,3.26,0,0,1,.46-1.66c.42-.94.86-1.88,1.27-2.82.1-.23.19-.32.47-.27a5.19,5.19,0,0,0,3.81-.88A18.85,18.85,0,0,0,33,14.56c.11-.09.18-.11.28,0a8.55,8.55,0,0,0,4.57,2.31,13,13,0,0,0,1.77.22c.75.06,1.51.1,2.27.1a16.5,16.5,0,0,0,4.63-.66c1.08-.32,2.14-.73,3.21-1.11.15-.05.21-.05.29.11.88,1.87,1.77,3.73,2.65,5.59a.63.63,0,0,1,.07.3c0,1-.08,1.91-.11,2.86s-.05,2-.08,3c0,.46-.05.92-.07,1.38s0,.85,0,1.27c0,1,0,2-.11,2.94a13.19,13.19,0,0,1-2.93,7.41A16.08,16.08,0,0,1,44.3,44.58Zm7.82,3.7a18.91,18.91,0,0,0-6.69-3,18,18,0,0,0,6.62-7.15l.26.57a10.94,10.94,0,0,0,4.11,4.91s0,0,.06,0c.49.16.58.51.54,1s0,1.18,0,1.77c0,.3-.08.41-.36.49L52.59,48A2.24,2.24,0,0,0,52.12,48.28Z"/><path class="cls-1" d="M54.59,62.56c0-2.69,0-5.38,0-8.06a5.79,5.79,0,0,0-1-3.12,10.37,10.37,0,0,0-4.11-3.49,19.9,19.9,0,0,0-4.55-1.62l-.84-.16c0,.06,0,.07,0,.09a6.14,6.14,0,0,1,.89,4,10.37,10.37,0,0,1-1.34,4.19.55.55,0,0,1-.95.14L39.85,51.7a1.1,1.1,0,0,1-.15-.26l-.1.08c0,.08,0,.16,0,.23q0,5.45,0,10.89c0,.22,0,.45,0,.68a.5.5,0,0,1-.56.49.48.48,0,0,1-.51-.52v-.24q0-5.56,0-11.13v-.51l-.07,0-.41.36-3,2.74c-.45.41-.8.34-1.07-.2a10.81,10.81,0,0,1-1.11-3.69,6.5,6.5,0,0,1,1-4.4,1.17,1.17,0,0,0,.1-.2l-1.7.4A17.15,17.15,0,0,0,27.91,48a10.8,10.8,0,0,0-3.49,2.81A6.17,6.17,0,0,0,23,54.75c0,2.86,0,5.73,0,8.6a.69.69,0,0,1-.28.65h32.1c-.09-.14-.23-.27-.25-.42C54.55,63.24,54.59,62.9,54.59,62.56Z"/><path class="cls-2" d="M49.46,40.25a13.19,13.19,0,0,0,2.93-7.41c.06-1,.08-2,.11-2.94,0-.42,0-.85,0-1.27s0-.92.07-1.38c0-1,0-2,.08-3s.08-1.9.11-2.86a.63.63,0,0,0-.07-.3c-.88-1.86-1.77-3.72-2.65-5.59-.08-.16-.14-.16-.29-.11-1.07.38-2.13.79-3.21,1.11a16.5,16.5,0,0,1-4.63.66c-.76,0-1.52,0-2.27-.1a13,13,0,0,1-1.77-.22,8.55,8.55,0,0,1-4.57-2.31c-.1-.11-.17-.09-.28,0a18.85,18.85,0,0,1-1.75,1.34,5.19,5.19,0,0,1-3.81.88c-.28-.05-.37,0-.47.27-.41.94-.85,1.88-1.27,2.82a3.26,3.26,0,0,0-.46,1.66c.08.91,0,1.83.08,2.74,0,.69.07,1.38.09,2.08s0,1.48.05,2.22c0,.54.07,1.08.08,1.62,0,.9,0,1.8.08,2.7A15.82,15.82,0,0,0,26,34.82a12.15,12.15,0,0,0,1.6,3.93,16.08,16.08,0,0,0,6.77,6.12,11,11,0,0,0,4.88,1.21A11.84,11.84,0,0,0,40.41,46a12.22,12.22,0,0,0,3.89-1.38A16.08,16.08,0,0,0,49.46,40.25Z"/><path class="cls-2" d="M53.64,27.91l-.06,1.55c0,.41,0,.82,0,1.23s0,1-.06,1.53a14.57,14.57,0,0,1-.14,1.87c-.17.86-.43,1.7-.66,2.55a.37.37,0,0,0,0,.18c.14.3.3.6.42.91a10,10,0,0,0,4,5,7.11,7.11,0,0,0,5.23,1.09,7.93,7.93,0,0,0,4.58-2.62,11.31,11.31,0,0,0,2.78-6,12.22,12.22,0,0,0-.09-4.43,10.89,10.89,0,0,0-3.24-6A7.61,7.61,0,0,0,61,22.55a7.15,7.15,0,0,0-3,.66,9.14,9.14,0,0,0-3.92,3.47c-.07.11-.13.25-.23.3s-.23.32-.25.52S53.65,27.77,53.64,27.91Z"/><path class="cls-2" d="M25.35,37.83a1.3,1.3,0,0,0,.11-1.06,11.57,11.57,0,0,1-.84-3.71c0-.54,0-1.08,0-1.62s-.06-1.06-.09-1.59,0-.89,0-1.34a9.75,9.75,0,0,1,0-1.08,1.45,1.45,0,0,0-.27-1.09c-.17-.21-.32-.44-.5-.65a8.28,8.28,0,0,0-5.19-3.07,7,7,0,0,0-3.52.38A8.57,8.57,0,0,0,11,26a12.16,12.16,0,0,0-2.3,7.34c0,.38,0,.93.11,1.49A12.12,12.12,0,0,0,10,38.8a9.54,9.54,0,0,0,3.63,4,7.19,7.19,0,0,0,5,1,7.88,7.88,0,0,0,4-2A10.5,10.5,0,0,0,25.35,37.83Z"/><path class="cls-3" d="M33.86,13.52a5.42,5.42,0,0,0,2,1.55,8.56,8.56,0,0,0,3.32.9c.74,0,1.48.13,2.22.16a9.08,9.08,0,0,0,1.28,0c.66-.06,1.32-.13,2-.23a17.94,17.94,0,0,0,3.53-1c.59-.23,1.17-.48,1.74-.72a.56.56,0,0,1,.86.37,1.73,1.73,0,0,0,.14.31l2.16,4.57h.07c0-.26.07-.53.1-.8.11-1,.23-2,.35-2.93s.22-1.69.32-2.54a2.29,2.29,0,0,0,0-1.22c-.12-.28-.19-.59-.29-.89a11.06,11.06,0,0,0-2.43-4,12.29,12.29,0,0,0-6.31-3.37,19,19,0,0,0-3.67-.53C40.2,3,39.14,3,38.08,3a4.33,4.33,0,0,0-2.41.76,6.43,6.43,0,0,0-3,5.51,8.82,8.82,0,0,0,.15,2A5.65,5.65,0,0,0,33.86,13.52Z"/><path class="cls-3" d="M24.83,18c0,.28.05.57.09.91a.91.91,0,0,0,.13-.2c.41-.89.82-1.79,1.22-2.69.22-.49.39-.57.91-.44a3.66,3.66,0,0,0,1.77.09,7.32,7.32,0,0,0,3.47-2.07.24.24,0,0,0,0-.31,16.41,16.41,0,0,1-.63-1.59,7.76,7.76,0,0,1-.25-2.67A7.85,7.85,0,0,1,31.89,7c.1-.28.19-.56.28-.84a3.08,3.08,0,0,0-1.6-.08A10.37,10.37,0,0,0,27,7.39a4.83,4.83,0,0,0-2.52,4.19c0,.95,0,1.9,0,2.84C24.6,15.63,24.73,16.83,24.83,18Z"/><path class="cls-2" d="M57,46.37c0-.59,0-1.18,0-1.77s-.05-.82-.54-1c0,0,0,0-.06,0a10.94,10.94,0,0,1-4.11-4.91l-.26-.57a18,18,0,0,1-6.62,7.15,18.91,18.91,0,0,1,6.69,3,2.24,2.24,0,0,1,.47-.26l4.06-1.16C56.93,46.78,57,46.67,57,46.37Z"/><path class="cls-2" d="M26.26,38.58l-.05,0a.22.22,0,0,0-.05.08,11,11,0,0,1-4.55,5.16.35.35,0,0,0-.14.27c0,.75,0,1.51,0,2.26a.43.43,0,0,0,.36.47c1.27.36,2.55.73,3.83,1.08a.48.48,0,0,0,.33-.06c.64-.36,1.26-.76,1.91-1.09a19.66,19.66,0,0,1,4.46-1.55.6.6,0,0,0,.18-.09A17.79,17.79,0,0,1,26.26,38.58Z"/><path class="cls-2" d="M35.54,48.16a2,2,0,0,1-.34-1.08,5.05,5.05,0,0,0-.06-.67l-.06,0-.15.17a5,5,0,0,0-1,2.69,7.09,7.09,0,0,0,.22,2.34c.15.57.35,1.12.54,1.74l3.26-3-.39-.25A6.09,6.09,0,0,1,35.54,48.16Z"/><path class="cls-2" d="M43,46.58a.29.29,0,0,0-.06.2,2.64,2.64,0,0,1-.57,1.69,6.9,6.9,0,0,1-1.88,1.61l-.42.28L43,53.24a2.89,2.89,0,0,0,.15-.31,9.88,9.88,0,0,0,.67-2.27,5.5,5.5,0,0,0-.48-3.59A5,5,0,0,0,43,46.58Z"/><path class="cls-2" d="M41.76,47.37a3.92,3.92,0,0,0,.13-.62,10.65,10.65,0,0,1-5.63,0c0,.12,0,.22,0,.3a3.63,3.63,0,0,0,.43.83,6.54,6.54,0,0,0,2.21,1.65.4.4,0,0,0,.35,0c.5-.3,1-.61,1.48-1A2.93,2.93,0,0,0,41.76,47.37Z"/></svg>