<svg id="Layer_1" data-name="Layer 1" xmlns="http://www.w3.org/2000/svg" viewBox="0 0 34 34"><defs><style>.cls-1{fill:none;}.cls-1,.cls-2,.cls-3{stroke:#000;stroke-miterlimit:10;stroke-width:0.25px;}.cls-3{fill:#fff;}</style></defs><title>Artboard 133</title><path class="cls-1" d="M31.4,17.5h0Z"/><path class="cls-2" d="M31.9,13.4a11.5,11.5,0,0,0-1.1-3.1A19,19,0,0,0,28.6,7a18.6,18.6,0,0,0-3.1-2.6,15,15,0,0,0-3.4-1.6,13.7,13.7,0,0,0-2.9-.7H17l-2.1.2-2,.5A14,14,0,0,0,9.6,4.2,13.4,13.4,0,0,0,6.2,7.1,12.1,12.1,0,0,0,4,10.3a10.8,10.8,0,0,0-1.1,3,10,10,0,0,0-.4,2.4,17.6,17.6,0,0,0,0,2.3,9.1,9.1,0,0,0,.3,2.3,10.9,10.9,0,0,0,1.4,3.8A15.1,15.1,0,0,0,6,26.7l1.4,1.4a11.9,11.9,0,0,0,2.9,2.1,13.4,13.4,0,0,0,3,1.2l2,.4a11.3,11.3,0,0,0,3.2.1l2.4-.3,2.8-1a16.3,16.3,0,0,0,3.5-2.3,14.9,14.9,0,0,0,3.3-4.1,10.3,10.3,0,0,0,1.4-3.8,14.3,14.3,0,0,0,.4-2.2,2,2,0,0,1,.1-.7v-1a3.8,3.8,0,0,1-.1-1A15.5,15.5,0,0,0,31.9,13.4ZM15.7,3.5A4.3,4.3,0,0,1,16.9,3v7.7c0,.2,0,.3-.2.2h-.9l-3-.4-1.4-.3c-.2,0-.2,0-.2-.2a18.9,18.9,0,0,1,2.6-4.6A11.4,11.4,0,0,1,15.7,3.5Zm-5.6,14h6.8v4.6h-1l-3.3.4-1.5.3c-.2.1-.2,0-.2-.1a13,13,0,0,1-.7-3.3c-.1-.5-.1-.9-.2-1.4v-.4C10,17.5,10,17.4,10.1,17.5ZM10,16.3a15.4,15.4,0,0,1,.4-3,16,16,0,0,1,.5-2.1c0-.1,0-.2.2-.1l2.1.4,1.3.2,2.4.2v4.7H10.3A.3.3,0,0,1,10,16.3ZM14.6,3.2a17.5,17.5,0,0,0-4.3,6.7A16.5,16.5,0,0,1,6.4,8.2,13.9,13.9,0,0,1,14.6,3.2ZM3.9,12.9a12.5,12.5,0,0,1,2-4,20,20,0,0,0,4.2,1.9,22.7,22.7,0,0,0-1,5.8H3.3A11.5,11.5,0,0,1,3.9,12.9ZM5.9,25c-1.2-1.1-2.6-5.1-2.6-7.5H9.1a27.2,27.2,0,0,0,.9,5.6A19.2,19.2,0,0,0,5.9,25Zm7.8,5.6a14.8,14.8,0,0,1-2.9-1.2A10.7,10.7,0,0,1,8,27.5L6.5,25.9c-.1-.1-.1-.2,0-.2A16.2,16.2,0,0,1,10,24h.3a17,17,0,0,0,4.4,6.8Zm3.2-1V31a5.1,5.1,0,0,1-1.6-.9,10.9,10.9,0,0,1-2.8-3.6c-.5-.8-.8-1.7-1.2-2.5a.4.4,0,0,1-.1-.3l1.4-.3,2.3-.3h1.8c.2-.1.2,0,.2.2ZM24.6,4.9a13.7,13.7,0,0,1,3.7,3.3L26.9,9l-2.2.9c-.3.1-.3.1-.4-.2a15.9,15.9,0,0,0-1.5-2.9c-.4-.8-1-1.5-1.5-2.3L20,3.2A11.8,11.8,0,0,1,24.6,4.9ZM17.8,3h.3a5.7,5.7,0,0,1,1.6,1.1,14,14,0,0,1,3.1,4.4l.6,1.4v.2l-1.4.3-1.8.3H17.9c-.1-.1-.1-.2-.1-.4V3Zm0,9.1c0-.2,0-.3.2-.3h1l3.1-.4,1.5-.3h.3l.6,2.5c.1.8.1,1.6.2,2.4s.1.5-.4.5H18c-.2,0-.2-.1-.2-.3Zm7,5.6a2.5,2.5,0,0,0-.1.8,18.7,18.7,0,0,1-.4,2.5,10.1,10.1,0,0,1-.3,1.7c-.1,0-.1.1-.1.2l-1.2-.3L21,22.3l-2.3-.2H18c-.2,0-.2-.1-.2-.2V17.6h6.7C24.7,17.5,24.8,17.5,24.8,17.7ZM19,30.5,18,31c-.1.1-.2,0-.2-.2V23.2c0-.2.1-.3.2-.2h2.3l1.4.2,1.9.4-.3,1a21.1,21.1,0,0,1-1.6,3A9,9,0,0,1,19,30.5Zm5.5-1.4a12.8,12.8,0,0,1-4.2,1.7A16.6,16.6,0,0,0,24.5,24a13.8,13.8,0,0,1,3.9,1.8A13.7,13.7,0,0,1,24.5,29.1Zm5.4-5.6c0,.1-.1.1-.1.2l-.4.6a1.8,1.8,0,0,1-.5.7l-2-1.1-2.1-.8a21,21,0,0,0,.8-5.6h5.8C31.6,18.9,30.8,21.6,29.9,23.5Zm1.3-6.9H25.9a.3.3,0,0,1-.3-.3A15.9,15.9,0,0,0,25,12l-.3-1.2,2.1-.8,2.1-1.1a14.8,14.8,0,0,1,2.6,7.7Z"/><path class="cls-3" d="M26.8,10l-2.1.8L25,12a15.9,15.9,0,0,1,.6,4.3.3.3,0,0,0,.3.3h5.6a14.8,14.8,0,0,0-2.6-7.7Z"/><path class="cls-3" d="M10.1,10.8A20,20,0,0,1,5.9,8.9a12.5,12.5,0,0,0-2,4,11.5,11.5,0,0,0-.6,3.7H9.1A22.7,22.7,0,0,1,10.1,10.8Z"/><path class="cls-3" d="M9.1,17.5H3.3c0,2.4,1.4,6.4,2.6,7.5A19.2,19.2,0,0,1,10,23.1,27.2,27.2,0,0,1,9.1,17.5Z"/><path class="cls-3" d="M31.4,17.5H25.6a21,21,0,0,1-.8,5.6l2.1.8,2,1.1a1.8,1.8,0,0,0,.5-.7l.4-.6c0-.1.1-.1.1-.2C30.8,21.6,31.6,18.9,31.4,17.5Z"/><path class="cls-3" d="M31.4,17.5c.2,1.4-.6,4.1-1.5,6,.9-1.9,1.7-4.6,1.5-6Z"/><path class="cls-3" d="M29.8,23.7l-.4.6Z"/><path class="cls-3" d="M18,16.6h6.3c.5,0,.5,0,.4-.5s-.1-1.6-.2-2.4l-.6-2.5h-.3l-1.5.3-3.1.4H18c-.2,0-.2.1-.2.3v4.2C17.8,16.5,17.8,16.6,18,16.6Z"/><path class="cls-3" d="M10.3,16.6h6.6V11.9l-2.4-.2-1.3-.2-2.1-.4c-.2-.1-.2,0-.2.1a16,16,0,0,0-.5,2.1,15.4,15.4,0,0,0-.4,3A.3.3,0,0,0,10.3,16.6Z"/><path class="cls-3" d="M18,17.5h-.2v4.3c0,.1,0,.2.2.2h.7l2.3.2,1.7.3,1.2.3c0-.1,0-.2.1-.2a10.1,10.1,0,0,0,.3-1.7,18.7,18.7,0,0,0,.4-2.5,2.5,2.5,0,0,1,.1-.8c0-.2-.1-.2-.3-.2Z"/><path class="cls-3" d="M10.2,19.4a13,13,0,0,0,.7,3.3c0,.1,0,.2.2.1l1.5-.3,3.3-.4h1V17.5H10.1c-.1-.1-.1,0-.1.1V18C10.1,18.5,10.1,18.9,10.2,19.4Z"/><path class="cls-3" d="M23.3,24.7l.3-1-1.9-.4-1.4-.2H18c-.1-.1-.2,0-.2.2v7.6c0,.2.1.3.2.2l1-.5a9,9,0,0,0,2.7-2.8A21.1,21.1,0,0,0,23.3,24.7Z"/><path class="cls-3" d="M16.7,23H14.9l-2.3.3-1.4.3a.4.4,0,0,0,.1.3c.4.8.7,1.7,1.2,2.5a10.9,10.9,0,0,0,2.8,3.6,5.1,5.1,0,0,0,1.6.9V23.2C16.9,23,16.9,22.9,16.7,23Z"/><path class="cls-3" d="M11.2,10c0,.2,0,.2.2.2l1.4.3,3,.4h.9c.2.1.2,0,.2-.2V3a4.3,4.3,0,0,0-1.2.5,11.4,11.4,0,0,0-1.9,1.9A18.9,18.9,0,0,0,11.2,10Z"/><path class="cls-3" d="M17.9,10.9h2.4l1.8-.3,1.4-.3V10l-.6-1.4a14,14,0,0,0-3.1-4.4,5.7,5.7,0,0,0-1.6-1.1h-.3v7.5C17.8,10.7,17.8,10.8,17.9,10.9Z"/><path class="cls-3" d="M22.8,6.8a15.9,15.9,0,0,1,1.5,2.9c.1.3.1.3.4.2L26.9,9l1.4-.8a13.7,13.7,0,0,0-3.7-3.3A11.8,11.8,0,0,0,20,3.2l1.3,1.3C21.8,5.3,22.4,6,22.8,6.8Z"/><path class="cls-3" d="M10.3,24H10a16.2,16.2,0,0,0-3.5,1.7c-.1,0-.1.1,0,.2L8,27.5a10.7,10.7,0,0,0,2.8,1.9,14.8,14.8,0,0,0,2.9,1.2l1,.2A17,17,0,0,1,10.3,24Z"/><path class="cls-3" d="M14.6,3.2a13.9,13.9,0,0,0-8.2,5,16.5,16.5,0,0,0,3.9,1.7A17.5,17.5,0,0,1,14.6,3.2Z"/><path class="cls-3" d="M20.3,30.8a12.8,12.8,0,0,0,4.2-1.7,13.7,13.7,0,0,0,3.9-3.3A13.8,13.8,0,0,0,24.5,24,16.6,16.6,0,0,1,20.3,30.8Z"/></svg>