<svg id="Layer_1" data-name="Layer 1" xmlns="http://www.w3.org/2000/svg" viewBox="0 0 70 54"><defs><style>.cls-1{fill:none;}.cls-2{fill:#fff;}</style></defs><title>Artboard 19</title><path class="cls-1" d="M49,27.7v0Z"/><path class="cls-1" d="M20.9,36.4v0Z"/><path d="M56.8,29.1a5.5,5.5,0,0,0-3.5-4c-.3-.2-.3-.3-.3-.6s-.1-3.3-.2-5a11.5,11.5,0,0,0-.7-3.6,18.5,18.5,0,0,0-4.2-7,16.4,16.4,0,0,0-2.5-2.1,17.7,17.7,0,0,0-9.1-3.3,18.3,18.3,0,0,0-4.7.3,17.4,17.4,0,0,0-6.3,2.5,18.1,18.1,0,0,0-6,6.3A17.7,17.7,0,0,0,17,21.3v3.2c0,.3,0,.5-.4.6a4.2,4.2,0,0,0-1.8,1.1,5.4,5.4,0,0,0-1.7,4.1v5a5,5,0,0,0,.9,2.9,5.8,5.8,0,0,0,5.9,2.5,2.9,2.9,0,0,0,2.5-2.9V27.6A2.9,2.9,0,0,0,20,24.7H18.7c-.2,0-.2-.1-.2-.3a28.8,28.8,0,0,1,.3-5.9,17.3,17.3,0,0,1,1.4-4.4,17,17,0,0,1,5.4-6.2,17.2,17.2,0,0,1,7.2-2.8A15.3,15.3,0,0,1,36.5,5a19.3,19.3,0,0,1,4.3,1,16.1,16.1,0,0,1,6.6,4.6A18.3,18.3,0,0,1,50.2,15a16.8,16.8,0,0,1,1.3,5.8v3.8H49.9a2.9,2.9,0,0,0-2.3,2.9v9.9a3.1,3.1,0,0,0,.1,1,2.6,2.6,0,0,0,2,2.1l1.1.2-.3,1.5a8.1,8.1,0,0,1-2.9,3.9,7.9,7.9,0,0,1-3.7,1.4.7.7,0,0,1-.6-.3,2.8,2.8,0,0,0-2.6-1.5H37.4a2.9,2.9,0,1,0,.3,5.7h3.1l1-.2a2.4,2.4,0,0,0,1.7-1.9c.1-.2.1-.3.4-.4a8,8,0,0,0,3.3-.8A9.4,9.4,0,0,0,52.3,41c0-.3.1-.4.3-.4l1.3-.5a5.1,5.1,0,0,0,2.9-4.4c.1-1.8.1-3.7.1-5.5S56.8,29.5,56.8,29.1ZM19.7,26.2a1.4,1.4,0,0,1,1.2,1.5v9.9a1.7,1.7,0,0,1-1.6,1.7,5.9,5.9,0,0,1-2.9-.7,4.1,4.1,0,0,1-1.8-3.4c-.1-1.7,0-3.3,0-4.9a4,4,0,0,1,3.6-4.1ZM40.8,50H37.6a1.4,1.4,0,0,1-1.5-1.3,1.4,1.4,0,0,1,1.3-1.4h3.5a1.4,1.4,0,0,1,1.3,1.4A1.5,1.5,0,0,1,40.8,50ZM55.4,35.3A4.1,4.1,0,0,1,52.5,39a8.2,8.2,0,0,1-2.2.2A1.4,1.4,0,0,1,49,37.7v-10a1.7,1.7,0,0,1,1.7-1.6,4.6,4.6,0,0,1,3,.9,3.7,3.7,0,0,1,1.7,3.1Z"/><path class="cls-2" d="M53.7,27a4.6,4.6,0,0,0-3-.9A1.7,1.7,0,0,0,49,27.7v10a1.4,1.4,0,0,0,1.3,1.5,8.2,8.2,0,0,0,2.2-.2,4.1,4.1,0,0,0,2.9-3.7V30.1A3.7,3.7,0,0,0,53.7,27Z"/><path class="cls-2" d="M14.6,30.3c0,1.6-.1,3.2,0,4.9a4.1,4.1,0,0,0,1.8,3.4,5.9,5.9,0,0,0,2.9.7,1.7,1.7,0,0,0,1.6-1.7V27.7a1.4,1.4,0,0,0-1.2-1.5H18.2A4,4,0,0,0,14.6,30.3Z"/><path class="cls-2" d="M40.9,47.3H37.4a1.4,1.4,0,0,0-1.3,1.4A1.4,1.4,0,0,0,37.6,50h3.2a1.5,1.5,0,0,0,1.4-1.3A1.4,1.4,0,0,0,40.9,47.3Z"/><path class="cls-2" d="M39.2,50h0Z"/></svg>