<svg xmlns="http://www.w3.org/2000/svg" width="34" height="34" viewBox="0 0 34 34">
    <defs>
        <linearGradient id="yprcclb4fa" x1=".078" x2=".889" y2="1.056" gradientUnits="objectBoundingBox">
            <stop offset="0" stop-color="#9d1cc4"/>
            <stop offset="1" stop-color="#ec3f3f"/>
        </linearGradient>
    </defs>
    <g transform="translate(-499 -1573)">
        <path fill="url(#yprcclb4fa)" d="M11.5 7.839a5.895 5.895 0 1 0 5.895 5.895A5.886 5.886 0 0 0 11.5 7.839zm0 9.727a3.832 3.832 0 1 1 3.832-3.832 3.839 3.839 0 0 1-3.832 3.832zM19.007 7.6a1.375 1.375 0 1 1-1.375-1.375A1.372 1.372 0 0 1 19.007 7.6zm3.9 1.4a6.8 6.8 0 0 0-1.857-4.817 6.849 6.849 0 0 0-4.817-1.857c-1.9-.108-7.588-.108-9.486 0a6.839 6.839 0 0 0-4.814 1.845A6.827 6.827 0 0 0 .076 8.988c-.108 1.9-.108 7.588 0 9.486a6.8 6.8 0 0 0 1.857 4.817 6.858 6.858 0 0 0 4.817 1.858c1.9.108 7.588.108 9.486 0a6.8 6.8 0 0 0 4.817-1.857 6.849 6.849 0 0 0 1.857-4.817c.108-1.9.108-7.583 0-9.481zm-2.448 11.511a3.88 3.88 0 0 1-2.186 2.189c-1.513.6-5.1.462-6.777.462s-5.269.133-6.777-.462a3.88 3.88 0 0 1-2.186-2.186c-.6-1.513-.462-5.1-.462-6.777s-.133-5.269.462-6.777a3.88 3.88 0 0 1 2.186-2.189c1.513-.6 5.1-.462 6.777-.462s5.269-.133 6.777.462a3.88 3.88 0 0 1 2.186 2.186c.6 1.513.462 5.1.462 6.777s.138 5.266-.462 6.777z" transform="translate(504.507 1576.266)"/>
    </g>
</svg>
