<svg xmlns="http://www.w3.org/2000/svg" id="free-icon-telephone-86663" width="42.853" height="30.854" viewBox="0 0 42.853 30.854">
    <defs>
        <style>
            .cls-1{fill:#404040}
        </style>
    </defs>
    <path id="패스_8279" d="M39.765 69.348C35.793 65.994 27.688 64.8 21.426 64.8S7.06 65.994 3.089 69.348C-.429 72.318.007 78.321.027 78.575a.7.7 0 0 0 .457.606 23.208 23.208 0 0 0 7.28.9.7.7 0 0 0 0-1.408 25.461 25.461 0 0 1-6.377-.684c-.023-1.392.131-5.481 2.584-7.553 3.688-3.115 11.435-4.225 17.456-4.225s13.767 1.11 17.456 4.225c2.445 2.065 2.6 6.16 2.583 7.553a25.465 25.465 0 0 1-6.376.684.7.7 0 0 0 0 1.408 23.2 23.2 0 0 0 7.279-.9.7.7 0 0 0 .457-.606c.02-.254.456-6.256-3.061-9.227z" class="cls-1" transform="translate(0 -64.799)"/>
    <path id="패스_8280" d="M162.294 176.788a7.272 7.272 0 1 0 7.272 7.272 7.28 7.28 0 0 0-7.272-7.272zm0 13.137a5.865 5.865 0 1 1 5.865-5.865 5.871 5.871 0 0 1-5.865 5.865z" class="cls-1" transform="translate(-140.868 -166.666)"/>
    <path id="패스_8281" d="M205.292 223.993a.7.7 0 0 0-.7.7 1.657 1.657 0 1 1-1.657-1.657.7.7 0 0 0 0-1.408A3.064 3.064 0 1 0 206 224.7a.7.7 0 0 0-.708-.707z" class="cls-1" transform="translate(-181.505 -207.277)"/>
    <path id="패스_8282" d="M82.071 140.608a5.29 5.29 0 0 1-.858-2.608v-4.132a3.24 3.24 0 0 0-2.022-2.906c-.117-.041-2.941-1.014-9.427-1.014s-9.31.972-9.427 1.014a3.24 3.24 0 0 0-2.022 2.906V138a5.29 5.29 0 0 1-.858 2.608l-2.976 4.011a6.679 6.679 0 0 0-1.138 3.46v4.841a2.368 2.368 0 0 0 2.337 2.393h28.168a2.368 2.368 0 0 0 2.337-2.393v-4.841a6.678 6.678 0 0 0-1.138-3.46zm2.739 12.312a.975.975 0 0 1-.962.985H55.68a.975.975 0 0 1-.962-.985v-4.841a5.289 5.289 0 0 1 .858-2.608l2.976-4.011a6.679 6.679 0 0 0 1.137-3.46v-4.132a1.834 1.834 0 0 1 1.095-1.575c.027-.009 2.766-.937 8.98-.937s8.953.928 8.978.936a1.834 1.834 0 0 1 1.1 1.575V138a6.677 6.677 0 0 0 1.138 3.46l2.976 4.011a5.29 5.29 0 0 1 .858 2.608v4.841z" class="cls-1" transform="translate(-48.337 -124.459)"/>
</svg>
