<svg xmlns="http://www.w3.org/2000/svg" width="19.755" height="18.595" viewBox="0 0 19.755 18.595">
    <defs>
        <style>
            .cls-1{fill:#000}
        </style>
    </defs>
    <g id="그룹_3852" transform="translate(-9.298 -6.461)">
        <g id="공유하기" transform="rotate(45 7.88 19.023)">
            <path id="패스_580" d="M12.59 17.27H2.962a1.646 1.646 0 0 1-1.643-1.641V2.962A1.645 1.645 0 0 1 2.962 1.32h6.91a.66.66 0 1 0 0-1.32h-6.91A2.966 2.966 0 0 0 0 2.962V15.63a2.967 2.967 0 0 0 2.962 2.958h9.628c.441.118.445-1.318 0-1.318z" class="cls-1" transform="rotate(-45 11.03 4.569)"/>
            <path id="패스_581" d="M10.713.2a.677.677 0 0 0-.162-.1.719.719 0 0 0-.065-.042.7.7 0 0 0-.223-.048c-.017 0-.032-.01-.051-.01h-7.1a.71.71 0 1 0 0 1.419h5.412L.2 9.891a.71.71 0 0 0 1.012 1L9.5 2.449v5.16a.71.71 0 1 0 1.419 0V.724A.7.7 0 0 0 10.713.2z" class="cls-1" transform="translate(9.618 1.739)"/>
        </g>
    </g>
</svg>
