<?xml version="1.0" encoding="utf-8"?>
<!-- Generator: Adobe Illustrator 21.0.2, SVG Export Plug-In . SVG Version: 6.00 Build 0)  -->
<svg version="1.1" id="Layer_1" xmlns="http://www.w3.org/2000/svg" xmlns:xlink="http://www.w3.org/1999/xlink" x="0px" y="0px"
	 viewBox="0 0 24 24" style="enable-background:new 0 0 24 24;" xml:space="preserve">
<style type="text/css">
	.st0{fill:#FF15A0;}
</style>
<path class="st0" d="M23.8,22.8l-5.4-5.6c1.6-1.9,2.5-4.2,2.5-6.6C20.8,4.7,16.2,0,10.4,0C4.7,0,0.1,4.6,0,10.3
	c0,5.8,4.6,10.5,10.3,10.5h0.1c2.5,0,5-0.9,6.9-2.6l5.4,5.6c0.3,0.3,0.7,0.3,1,0S24.1,23.1,23.8,22.8C23.8,22.8,23.8,22.8,23.8,22.8
	L23.8,22.8z M10.4,19.4L10.4,19.4c-5,0-9-4-9-9c0-4.9,4-8.9,9-8.9c4.9,0,9,4,9,8.9C19.4,15.4,15.4,19.4,10.4,19.4L10.4,19.4
	L10.4,19.4z"/>
</svg>
