<svg xmlns="http://www.w3.org/2000/svg" width="80.568" height="103.889" viewBox="0 0 80.568 103.889">
    <defs>
        <style>
            .cls-1{fill:#f6bb92}.cls-3{fill:#fdc9a6}.cls-4{fill:#69b0bb}.cls-5{fill:#64a8b2}.cls-6{fill:#985713}
        </style>
    </defs>
    <g id="free-icon-operator-1108347">
        <path id="패스_8258" d="M66.241 168.007h6.266v-8.952h-6.266a4.476 4.476 0 1 0 0 8.952zm0 0" class="cls-1" transform="translate(-49.233 -126.781)"/>
        <path id="패스_8259" fill="#6fbbc6" d="M48.34 326.7h16.114a14.324 14.324 0 0 1 14.323 14.323V364.3H0v-23.274A14.324 14.324 0 0 1 14.323 326.7zm0 0" transform="translate(0 -260.412)"/>
        <path id="패스_8260" d="M317.652 459.059h14.323V469.8h-14.323zm0 0" class="cls-3" transform="translate(-253.198 -365.912)"/>
        <path id="패스_8261" d="M0 459.059h14.323V469.8H0zm0 0" class="cls-3" transform="translate(0 -365.912)"/>
        <path id="패스_8262" d="M159.084 284.5v-10.738h-14.323V284.5h-3.581l8.952 21.485h3.575l8.957-21.485zm0 0" class="cls-3" transform="translate(-112.533 -218.213)"/>
        <path id="패스_8263" d="M158.828 279.417a17.853 17.853 0 0 0 14.322 0v-5.655h-14.322zm0 0" class="cls-1" transform="translate(-126.601 -218.214)"/>
        <path id="패스_8264" d="M127.113 326.7h-1.791l-1.791 12.533 12.538 8.952zm0 0" class="cls-4" transform="translate(-98.466 -260.412)"/>
        <path id="패스_8265" d="M211.9 326.7h1.791l1.735 12.533-12.477 8.952zm0 0" class="cls-4" transform="translate(-161.766 -260.412)"/>
        <path id="패스_8266" d="M59.577 419.3l-.518-.523a8.6 8.6 0 0 1-2.537-6.121v-1.529a3.739 3.739 0 0 1 .394-1.665l2.65-5.3a5.122 5.122 0 0 0 .537-2.274v-2.8a1.791 1.791 0 1 0-3.581 0v2.8a1.494 1.494 0 0 1-.159.671l-2.65 5.3a7.335 7.335 0 0 0-.772 3.271v1.529a12.147 12.147 0 0 0 2.91 7.912H60.1a1.789 1.789 0 0 0-.526-1.267zm0 0" class="cls-5" transform="translate(-42.199 -316.679)"/>
        <path id="패스_8267" d="M301.05 418.778l-.519.518a1.791 1.791 0 0 0-.527 1.273h4.254a12.142 12.142 0 0 0 2.908-7.912v-1.529a7.333 7.333 0 0 0-.772-3.266l-2.65-5.3a1.488 1.488 0 0 1-.159-.67v-2.8a1.79 1.79 0 1 0-3.581 0v2.8a5.106 5.106 0 0 0 .537 2.272l2.65 5.308a3.719 3.719 0 0 1 .394 1.664v1.529a8.613 8.613 0 0 1-2.535 6.117zm0 0" class="cls-5" transform="translate(-239.13 -316.679)"/>
        <path id="패스_8268" d="M202.945 459.059h3.581v3.581h-3.581zm0 0" class="cls-5" transform="translate(-161.766 -365.912)"/>
        <path id="패스_8269" d="M105.883 70.816v25.066a17.9 17.9 0 0 0 35.809 0V70.816zm0 0" class="cls-3" transform="translate(-84.399 -56.447)"/>
        <g id="그룹_3901" transform="translate(16.114)">
            <path id="패스_8270" d="M142.97 164.422a1.79 1.79 0 0 1-1.791-1.79v-1.791a1.791 1.791 0 0 1 3.581 0v1.791a1.791 1.791 0 0 1-1.79 1.79zm0 0" class="cls-6" transform="translate(-128.647 -126.778)"/>
            <path id="패스_8271" d="M231.2 164.422a1.791 1.791 0 0 1-1.791-1.79v-1.791a1.791 1.791 0 1 1 3.581 0v1.791a1.79 1.79 0 0 1-1.79 1.79zm0 0" class="cls-6" transform="translate(-198.978 -126.778)"/>
            <path id="패스_8272" d="M188.878 175.037h-1.791a1.791 1.791 0 0 1-1.79-1.79v-3.581a1.791 1.791 0 1 1 3.581 0v1.79a1.791 1.791 0 0 1 0 3.581zm0 0" class="cls-6" transform="translate(-163.812 -133.812)"/>
            <path id="패스_8273" d="M172.882 225.135a9.8 9.8 0 0 1-4.379-1.028 1.791 1.791 0 0 1 1.527-3.239l.072.036a6.25 6.25 0 0 0 5.559 0 1.79 1.79 0 0 1 1.626 3.19l-.025.013a9.8 9.8 0 0 1-4.38 1.028zm0 0" class="cls-6" transform="translate(-149.607 -175.915)"/>
            <path id="패스_8274" d="M123.512 9.558a10.4 10.4 0 0 0-8.29-4.972h-1.791s-3.58-8.121-17.9-2.75c-2.129.448-7.4 3.917-9.236 5.077-3.3 2.084-6.878 6.17-6.878 10.91v14.45h5.371l11.459-4.58a33.9 33.9 0 0 0 11.371-7.5l5.817-5.828 7.162 17.9h3.58l1.447-12.74a14.115 14.115 0 0 0-2.109-9.975zm0 0" class="cls-6" transform="translate(-79.414)"/>
            <path id="패스_8275" d="M319.7 126.063h-7.16a7.162 7.162 0 0 1-7.162-7.162V96a7.163 7.163 0 0 0-1.2-3.973l-4.168-3.566h10.74a5.371 5.371 0 0 1 5.371 5.371v24.688a7.158 7.158 0 0 0 1.2 3.973zm0 0" class="cls-6" transform="translate(-255.247 -70.515)"/>
        </g>
        <path id="패스_8276" fill="#6f7478" d="M282.359 159.055h4.476a4.476 4.476 0 0 1 4.476 4.476v1.791a4.476 4.476 0 0 1-4.476 4.476h-4.476zm0 0" transform="translate(-225.066 -126.782)"/>
        <path id="패스_8277" fill="#787d82" d="M256.1 159.052v21.485a1.8 1.8 0 0 1-.525 1.266l-5.372 5.372a1.79 1.79 0 0 1-2.532-2.532l4.847-4.847v-18.954a1.791 1.791 0 0 1 1.791-1.791h1.79zm0 0" transform="translate(-197.02 -126.779)"/>
        <path id="패스_8278" d="M162.728 431.58l6.128-4.6a1.79 1.79 0 1 0-2.146-2.866l-7.162 5.372a1.791 1.791 0 0 0-.623 2l3.391 10.176h3.678a1.783 1.783 0 0 0-.093-.566zm0 0" class="cls-5" transform="translate(-126.604 -337.775)"/>
    </g>
</svg>
