<svg xmlns="http://www.w3.org/2000/svg" width="70" height="54" viewBox="0 0 70 54">
    <defs>
        <style>
            .cls-2{fill:#ebf7fe}.cls-3{fill:#2d2a4a}.cls-4{fill:#a51931}
        </style>
    </defs>
    <g id="그룹_4069" transform="translate(-490 -629)">
        <path id="사각형_2251" fill="none" d="M0 0H70V54H0z" transform="translate(490 629)"/>
        <g id="Layer_20" transform="translate(486.121 628.321)">
            <path id="패스_8164" d="M37 13h18.738v6.246H37z" class="cls-2" transform="translate(9.272 7.015)"/>
            <path id="패스_8165" d="M37 25h18.738v6.246H37z" class="cls-2" transform="translate(9.272 13.754)"/>
            <path id="패스_8166" d="M37 17h18.738v12.492H37z" class="cls-3" transform="translate(9.272 9.261)"/>
            <path id="패스_8167" d="M37 29h18.738v3.123a3.123 3.123 0 0 1-3.123 3.123H37z" class="cls-4" transform="translate(9.272 16)"/>
            <path id="패스_8168" d="M37 9h15.615a3.123 3.123 0 0 1 3.123 3.123v3.123H37z" class="cls-4" transform="translate(9.272 4.769)"/>
            <path id="패스_8169" d="M21 11h28.107v6.246H21z" class="cls-2" transform="translate(.288 5.892)"/>
            <path id="패스_8170" d="M21 23h28.107v6.246H21z" class="cls-2" transform="translate(.288 12.631)"/>
            <path id="패스_8171" d="M21 27h28.107v6.246H21z" class="cls-4" transform="translate(.288 14.877)"/>
            <path id="패스_8172" d="M21 7h28.107v6.246H21z" class="cls-4" transform="translate(.288 3.646)"/>
            <path id="패스_8173" fill="#fff" d="M20.123 7.924A6.9 6.9 0 0 1 17 7.22v41.318h6.245V7.22a6.9 6.9 0 0 1-3.122.704z" transform="translate(-1.958 3.77)"/>
            <path id="패스_8176" d="M21 15h28.107v12.492H21z" class="cls-3" transform="translate(.288 8.138)"/>
            <circle id="타원_534" cx="5.421" cy="5.421" r="5.421" fill="#a0a8b2" transform="translate(12.746 2.929)"/>
        </g>
    </g>
</svg>
