<svg xmlns="http://www.w3.org/2000/svg" width="101.254" height="103.889" viewBox="0 0 101.254 103.889">
    <defs>
        <style>
            .cls-3{fill:#81c83d}.cls-5{fill:#6d7486}.cls-6{fill:#8fb1b5}.cls-7{fill:#d8ff33}.cls-8{fill:#f4f8fc}
        </style>
    </defs>
    <g id="note" transform="translate(-36 -27.375)">
        <path id="패스_8233" fill="#6addc7" d="M443.508 275.666a5.8 5.8 0 0 0-8.033-1.661l-.485.317 6.37 9.7.485-.317a5.8 5.8 0 0 0 1.663-8.035z" transform="translate(-307.209 -189.162)"/>
        <path id="패스_8234" fill="#cae6ee" d="M104.973 58H42.864A6.8 6.8 0 0 0 36 64.815v83.042a6.944 6.944 0 0 0 6.864 6.986h62.109a7.008 7.008 0 0 0 6.938-6.986V64.815A6.861 6.861 0 0 0 104.973 58zm-53.31 13.523a3.821 3.821 0 1 1 3.821-3.823 3.821 3.821 0 0 1-3.821 3.821zm14.382 0a3.821 3.821 0 1 1 3.82-3.823 3.821 3.821 0 0 1-3.821 3.821zm14.384 0a3.819 3.819 0 1 1 2.7-1.118 3.821 3.821 0 0 1-2.701 1.118zm14.382 0a3.821 3.821 0 1 1 3.82-3.823 3.821 3.821 0 0 1-3.821 3.821z" transform="translate(0 -23.579)"/>
        <path id="패스_8235" d="M81.467 162.9a7.988 7.988 0 1 1-7.987 7.988 7.988 7.988 0 0 1 7.987-7.988z" class="cls-3" transform="translate(-28.858 -104.35)"/>
        <path id="패스_8236" d="M81.467 262.9a7.988 7.988 0 1 1-7.987 7.988 7.988 7.988 0 0 1 7.987-7.988z" class="cls-3" transform="translate(-28.858 -181.346)"/>
        <path id="패스_8237" d="M81.467 362.9a7.988 7.988 0 1 1-7.987 7.988 7.988 7.988 0 0 1 7.987-7.988z" class="cls-3" transform="translate(-28.858 -258.343)"/>
        <path id="패스_8238" fill="#aac8ce" d="M42.9 147.857V64.815A6.8 6.8 0 0 1 49.765 58h-6.9A6.8 6.8 0 0 0 36 64.815v83.042a6.944 6.944 0 0 0 6.864 6.986h6.9a6.944 6.944 0 0 1-6.864-6.986z" transform="translate(0 -23.579)"/>
        <g id="그룹_3900" transform="translate(50.283 27.375)">
            <path id="패스_8239" d="M99.47 41.65a1.38 1.38 0 0 1-1.38-1.38V28.755a1.38 1.38 0 0 1 2.76 0V40.27a1.38 1.38 0 0 1-1.38 1.38z" class="cls-5" transform="translate(-98.09 -27.375)"/>
            <path id="패스_8240" d="M99.47 41.65a1.38 1.38 0 0 1-1.38-1.38V28.755a1.38 1.38 0 0 1 2.76 0V40.27a1.38 1.38 0 0 1-1.38 1.38z" class="cls-5" transform="translate(-98.09 -27.375)"/>
            <path id="패스_8241" d="M161.993 41.65a1.38 1.38 0 0 1-1.38-1.38V28.755a1.38 1.38 0 1 1 2.76 0V40.27a1.38 1.38 0 0 1-1.38 1.38z" class="cls-5" transform="translate(-146.231 -27.375)"/>
            <path id="패스_8242" d="M224.518 41.65a1.38 1.38 0 0 1-1.38-1.38V28.755a1.38 1.38 0 1 1 2.76 0V40.27a1.38 1.38 0 0 1-1.38 1.38z" class="cls-5" transform="translate(-194.373 -27.375)"/>
            <path id="패스_8243" d="M287.041 41.65a1.38 1.38 0 0 1-1.38-1.38V28.755a1.38 1.38 0 1 1 2.76 0V40.27a1.38 1.38 0 0 1-1.38 1.38z" class="cls-5" transform="translate(-242.513 -27.375)"/>
        </g>
        <path id="패스_8244" d="M208.085 182.385h-34.5a1.38 1.38 0 0 1 0-2.76h34.5a1.38 1.38 0 0 1 0 2.76z" class="cls-6" transform="translate(-104.87 -117.227)"/>
        <path id="패스_8245" d="M92.212 189.85a1.376 1.376 0 0 1-.976-.4l-2.2-2.2a1.38 1.38 0 1 1 1.954-1.95l1.244 1.244 3.067-2.932a1.38 1.38 0 0 1 1.908 2l-4.042 3.865a1.376 1.376 0 0 1-.954.383z" class="cls-7" transform="translate(-40.527 -120)"/>
        <path id="패스_8246" d="M208.085 282.385h-34.5a1.38 1.38 0 1 1 0-2.76h34.5a1.38 1.38 0 0 1 0 2.76z" class="cls-6" transform="translate(-104.87 -194.224)"/>
        <path id="패스_8247" d="M92.212 289.85a1.376 1.376 0 0 1-.976-.4l-2.2-2.2a1.38 1.38 0 1 1 1.954-1.95l1.244 1.244 3.067-2.932a1.38 1.38 0 1 1 1.908 2l-4.042 3.865a1.376 1.376 0 0 1-.955.373z" class="cls-7" transform="translate(-40.527 -196.996)"/>
        <path id="패스_8248" d="M195.456 382.385H173.58a1.38 1.38 0 1 1 0-2.76h21.876a1.38 1.38 0 1 1 0 2.76z" class="cls-6" transform="translate(-104.87 -271.221)"/>
        <path id="패스_8249" d="M92.212 389.85a1.376 1.376 0 0 1-.976-.4l-2.2-2.2a1.38 1.38 0 1 1 1.954-1.95l1.244 1.244 3.067-2.932a1.38 1.38 0 1 1 1.908 2l-4.042 3.865a1.376 1.376 0 0 1-.955.373z" class="cls-7" transform="translate(-40.527 -273.993)"/>
        <path id="패스_8250" d="M191.983 202.385h-18.4a1.38 1.38 0 0 1 0-2.76h18.4a1.38 1.38 0 0 1 0 2.76z" class="cls-6" transform="translate(-104.87 -132.627)"/>
        <path id="패스_8251" d="M191.983 302.385h-18.4a1.38 1.38 0 0 1 0-2.76h18.4a1.38 1.38 0 0 1 0 2.76z" class="cls-6" transform="translate(-104.87 -209.624)"/>
        <path id="패스_8252" d="M191.983 402.385h-18.4a1.38 1.38 0 0 1 0-2.76h18.4a1.38 1.38 0 0 1 0 2.76z" class="cls-6" transform="translate(-104.87 -286.62)"/>
        <path id="패스_8253" d="M54.68 98.3a1.38 1.38 0 0 1-1.38-1.38v-1.448a1.38 1.38 0 0 1 2.76 0v1.449a1.38 1.38 0 0 1-1.38 1.379z" class="cls-8" transform="translate(-13.321 -51.37)"/>
        <path id="패스_8254" d="M54.68 135.494a1.38 1.38 0 0 1-1.38-1.38v-13.342a1.38 1.38 0 1 1 2.76 0v13.342a1.38 1.38 0 0 1-1.38 1.38z" class="cls-8" transform="translate(-13.321 -70.85)"/>
        <path id="패스_8255" fill="#e75163" d="M324.729 299.66l-37.079 24.349 3.186 4.847 37.077-24.349z" transform="translate(-193.762 -209.65)"/>
        <path id="패스_8256" fill="#fb6771" d="M0 0h44.359v5.8H0z" transform="rotate(-33.28 228.45 -96.997)"/>
        <path id="패스_8257" fill="#c79a83" d="M256.083 384.43l-.147.276-5.146 9.726 11.665-.306z" transform="translate(-165.381 -274.921)"/>
    </g>
</svg>
