<svg xmlns="http://www.w3.org/2000/svg" width="70" height="54" viewBox="0 0 70 54">
    <defs>
        <style>
            .cls-1{fill:#fff}
        </style>
    </defs>
    <g id="그룹_4072" transform="translate(-1014 -631)">
        <g id="free-icon-minibus-62444" transform="translate(1014 544.084)">
            <g id="그룹_3871" transform="translate(0 92.843)">
                <path id="패스_8161" d="M54.049 283.208a6.267 6.267 0 1 0 6.267 6.267 6.267 6.267 0 0 0-6.267-6.267zm0 8.912a2.645 2.645 0 1 1 2.645-2.645 2.648 2.648 0 0 1-2.645 2.645z" class="cls-1" transform="translate(-39.782 -253.597)"/>
                <path id="패스_8162" d="M334.534 283.208a6.267 6.267 0 1 0 6.267 6.267 6.268 6.268 0 0 0-6.267-6.267zm0 8.912a2.645 2.645 0 1 1 2.645-2.645 2.648 2.648 0 0 1-2.645 2.645z" class="cls-1" transform="translate(-278.766 -253.597)"/>
                <path id="패스_8163" d="M68.7 110.565l-6.116-2.85-6.727-13.621-2-1.251H2.237L0 95.1v32.485l2.237 2.261H5.02a9.423 9.423 0 0 1-.132-1.559 9.2 9.2 0 1 1 18.4 0 9.423 9.423 0 0 1-.132 1.559H46.84a9.423 9.423 0 0 1-.132-1.559 9.2 9.2 0 1 1 18.4 0 9.407 9.407 0 0 1-.132 1.559h2.783L70 127.589v-14.971zm-52.076-1.143l-7.815.011v-9.454h7.815zm14.314 0l-7.815.011v-9.454h7.815zm6.946.011v-9.454H49.61l4.66 9.437z" class="cls-1" transform="translate(0 -92.843)"/>
            </g>
        </g>
        <path id="사각형_2252" fill="none" d="M0 0H70V54H0z" transform="translate(1014 631)"/>
    </g>
</svg>
