<svg id="Layer_1" data-name="Layer 1" xmlns="http://www.w3.org/2000/svg" viewBox="0 0 78 66"><defs><style>.cls-1{fill:none;}.cls-2{fill:#fff;}.cls-3{fill:#ffc816;}.cls-4{fill:red;}</style></defs><title>Artboard 11</title><path class="cls-1" d="M51.55,37.25h0Z"/><path d="M61.36,5.13H49.1c-.21,0-.27-.07-.26-.28,0-.46,0-.92,0-1.39a.89.89,0,0,0-.34-.87H29.74a.91.91,0,0,0-.31.88c0,.46,0,.91,0,1.37,0,.22-.06.29-.29.28H16.75c-.19,0-.41,0-.54.17a.57.57,0,0,0-.11.25,3.4,3.4,0,0,0,0,.45V62.05c0,.15,0,.3,0,.45s.25.37.43.5h.05c.05,0,.09-.06.14-.06h45a.42.42,0,0,0,.48-.45V62q0-28.11,0-56.23a1.28,1.28,0,0,1,.05-.27v0C62,5.14,61.71,5.12,61.36,5.13ZM30.82,3.65H47.43c.37,0,.37,0,.37.38V11.5c0,.31,0,.31-.32.31H30.79c-.31,0-.3,0-.3-.31,0-2.5,0-5,0-7.5C30.49,3.6,30.43,3.65,30.82,3.65Zm-1.39,8.57c0,.45.19.62.64.62H48.14c.4,0,.59-.09.65-.33a2.31,2.31,0,0,0,.05-.46c0-.49,0-1,0-1.46,0-.21.07-.29.27-.29h7.61c.21,0,.3.07.28.28A2.8,2.8,0,0,0,57,11q0,23.13,0,46.26c0,.55.11.52-.52.52H21.63c-.34,0-.34,0-.34-.34V34h0V10.72c0-.37,0-.42.43-.42h7.35c.35,0,.36,0,.36.35C29.43,11.18,29.42,11.7,29.43,12.22ZM61.21,61.61c0,.29-.07.32-.35.31H18c-.23,0-.45,0-.67,0s-.19-.05-.18-.17V7.17c0-.28,0-.56,0-.83s.06-.21.2-.2a.27.27,0,0,0,.09,0H29.12c.31,0,.31,0,.31.32,0,.86,0,1.72,0,2.58,0,.21-.06.26-.25.26H21a.79.79,0,0,0-.44.08.62.62,0,0,0-.24.39,3,3,0,0,0,0,.67V58.17c0,.44.17.61.62.61H57.37c.25,0,.49,0,.59-.3a1,1,0,0,0,0-.3V10a1.79,1.79,0,0,0,0-.4c-.08-.25-.32-.29-.54-.3H49.06c-.18,0-.26-.08-.26-.25,0-.9,0-1.79,0-2.69,0-.2.12-.22.29-.22,1.87,0,3.75,0,5.62,0,2,0,4.11,0,6.16,0,.21,0,.32,0,.31.28s0,.59,0,.88V61.61Z"/><path class="cls-2" d="M62.15,62v.46a.42.42,0,0,1-.48.45h-45c-.05,0-.09,0-.14.06H62.21V5.53a1.28,1.28,0,0,0-.05.27Q62.15,33.92,62.15,62Z"/><path class="cls-2" d="M29.07,10.31H21.72c-.43,0-.43,0-.43.42V34h0V57.43c0,.34,0,.34.34.34H56.47c.63,0,.52,0,.52-.52Q57,34.12,57,11a2.8,2.8,0,0,1,0-.41c0-.21-.07-.28-.28-.28H49.11c-.2,0-.28.08-.27.29,0,.49,0,1,0,1.46a2.31,2.31,0,0,1-.05.46c-.06.24-.25.33-.65.33H30.07c-.45,0-.63-.17-.64-.62s0-1,0-1.56C29.43,10.31,29.42,10.31,29.07,10.31Zm22.55,38.5H36.8a1.12,1.12,0,0,1-.56-.18.45.45,0,0,1-.14-.54.57.57,0,0,1,.46-.4h15a.56.56,0,0,1,.62.55A.59.59,0,0,1,51.62,48.81ZM36.37,26.87a.93.93,0,0,1,.44-.08H51.48a1.34,1.34,0,0,1,.4.06.56.56,0,0,1-.25,1.07h-15a.57.57,0,0,1-.59-.45A.52.52,0,0,1,36.37,26.87Zm-.26,10.74a.5.5,0,0,1,.48-.36h15a.58.58,0,0,1,.6.3.55.55,0,0,1-.43.8h-15a1,1,0,0,1-.53-.2A.42.42,0,0,1,36.11,37.61Zm-4.29,8.28-2.44,4c-.16.27-.31.54-.48.79a.54.54,0,0,1-.92,0c-1-1.15-1.91-2.31-2.86-3.46a.62.62,0,0,1-.1-.71.51.51,0,0,1,.62-.23,1.19,1.19,0,0,1,.48.39c.71.85,1.41,1.71,2.11,2.57l.12.16c.29-.49.56-.92.82-1.35.56-.92,1.11-1.84,1.68-2.75a.55.55,0,0,1,1-.05A.53.53,0,0,1,31.82,45.89ZM25.13,35.57a.57.57,0,0,1,.83.08c.54.65,1.07,1.31,1.6,2,.26.31.52.62.8,1l1.09-1.8,1.41-2.3a.54.54,0,0,1,.79-.21.57.57,0,0,1,.15.8c-.77,1.28-1.55,2.55-2.32,3.82-.18.3-.36.6-.55.9a.56.56,0,0,1-1,.06l-2.87-3.48A.58.58,0,0,1,25.13,35.57Zm4.32-8.82,1.35-2.22c.25-.42.65-.5.94-.21a.54.54,0,0,1,.07.7l-2.1,3.47c-.27.43-.52.87-.8,1.3a.56.56,0,0,1-.95,0l-2.77-3.36a.7.7,0,0,1-.23-.62.51.51,0,0,1,.39-.42.53.53,0,0,1,.58.17l1,1.2,1.44,1.75C28.74,27.93,29.1,27.34,29.45,26.75Z"/><path class="cls-3" d="M61.21,7.3c0-.29-.05-.58,0-.88s-.1-.28-.31-.28c-2,0-4.11,0-6.16,0-1.87,0-3.75,0-5.62,0-.17,0-.29,0-.29.22,0,.9,0,1.79,0,2.69,0,.17.08.25.26.25h8.36c.22,0,.46.05.54.3a1.79,1.79,0,0,1,0,.4V58.18a1,1,0,0,1,0,.3c-.1.28-.34.3-.59.3H20.88c-.45,0-.62-.17-.62-.61V10.43a3,3,0,0,1,0-.67.62.62,0,0,1,.24-.39A.79.79,0,0,1,21,9.29h8.21c.19,0,.26-.05.25-.26,0-.86,0-1.72,0-2.58,0-.32,0-.32-.31-.32H17.41a.27.27,0,0,1-.09,0c-.14,0-.2,0-.2.2s0,.55,0,.83V61.75c0,.12,0,.18.18.17s.44,0,.67,0H60.86c.28,0,.32,0,.35-.31V7.3Z"/><path class="cls-2" d="M30.49,11.5c0,.31,0,.31.3.31H47.48c.32,0,.32,0,.32-.31V4c0-.37,0-.38-.37-.38H30.82c-.39,0-.33,0-.33.35C30.48,6.5,30.49,9,30.49,11.5Z"/><path d="M36.67,27.91h15a.56.56,0,0,0,.25-1.07,1.34,1.34,0,0,0-.4-.06H36.81a.93.93,0,0,0-.44.08.52.52,0,0,0-.29.59A.57.57,0,0,0,36.67,27.91Z"/><path d="M36.67,27.91h0Z"/><path d="M51.59,47.68h-15a.57.57,0,0,0-.46.4.45.45,0,0,0,.14.54,1.12,1.12,0,0,0,.56.18H51.62a.59.59,0,0,0,.59-.58A.56.56,0,0,0,51.59,47.68Z"/><path d="M36.22,38.15a1,1,0,0,0,.53.2h15a.55.55,0,0,0,.43-.8.58.58,0,0,0-.6-.3h-15a.5.5,0,0,0-.48.36A.42.42,0,0,0,36.22,38.15Z"/><path class="cls-4" d="M26.92,26.8l-1-1.2a.53.53,0,0,0-.58-.17.51.51,0,0,0-.39.42.7.7,0,0,0,.23.62L28,29.83a.56.56,0,0,0,.95,0c.28-.43.53-.87.8-1.3L31.81,25a.54.54,0,0,0-.07-.7c-.29-.29-.69-.21-.94.21l-1.35,2.22c-.35.59-.71,1.18-1.09,1.8Z"/><path class="cls-4" d="M28,39.85a.56.56,0,0,0,1-.06c.19-.3.37-.6.55-.9.77-1.27,1.55-2.54,2.32-3.82a.57.57,0,0,0-.15-.8.54.54,0,0,0-.79.21l-1.41,2.3-1.09,1.8c-.28-.35-.54-.66-.8-1C27,37,26.5,36.3,26,35.65a.57.57,0,0,0-.83-.08.58.58,0,0,0,0,.8Z"/><path class="cls-4" d="M30.85,45.35c-.57.91-1.12,1.83-1.68,2.75-.26.43-.53.86-.82,1.35l-.12-.16c-.7-.86-1.4-1.72-2.11-2.57a1.19,1.19,0,0,0-.48-.39.51.51,0,0,0-.62.23.62.62,0,0,0,.1.71c.95,1.15,1.9,2.31,2.86,3.46a.54.54,0,0,0,.92,0c.17-.25.32-.52.48-.79l2.44-4a.53.53,0,0,0,0-.59A.55.55,0,0,0,30.85,45.35Z"/></svg>