<svg id="Layer_1" data-name="Layer 1" xmlns="http://www.w3.org/2000/svg" viewBox="0 0 70 54"><defs><style>.cls-1{fill:#fff;stroke:#fff;stroke-miterlimit:10;}</style></defs><title>Artboard 13</title><path class="cls-1" d="M59.15,36c-.1.6-.19,1.2-.31,1.79a13.63,13.63,0,0,1-4.92,8L46.73,51.6a.76.76,0,0,1-1.15,0c-2.57-2.08-5.18-4.12-7.69-6.26a13.26,13.26,0,0,1-4.5-8,28.06,28.06,0,0,1-.2-4.93c0-.32-.06-.43-.42-.45a17.41,17.41,0,0,1-9-2.9,6.64,6.64,0,0,1-1.71-1.59,2,2,0,0,1-.39-1.21c0-2.89,0-5.78,0-8.67,0-.27,0-.42-.34-.51Q19.73,16.6,18.11,16a.4.4,0,0,0-.5.15,2.09,2.09,0,0,0-.46,1.38v6.12c0,.93,0,1.86,0,2.79a.32.32,0,0,0,.25.36,3,3,0,0,1,1.37,4.8.53.53,0,0,0-.09.56q1.1,3.3,2.17,6.6a2.29,2.29,0,0,1-2.25,3.14q-2.29,0-4.59,0a2.31,2.31,0,0,1-2.24-3.1c.75-2.26,1.49-4.52,2.24-6.78a.54.54,0,0,0-.07-.56,3,3,0,0,1,1.36-4.61.44.44,0,0,0,.32-.48c.07-3.07,0-6.15.05-9.22a3.29,3.29,0,0,1,2.26-2.94c5.16-1.5,10.31-3,15.46-4.57.55-.16.93,0,1.07.46s-.09.82-.62,1L20.72,15l-.41.12L23,16c3.31,1.07,6.62,2.12,9.92,3.2a3.07,3.07,0,0,0,1.92,0l21.21-6.59c.66-.2.94-.66.74-1.18a.9.9,0,0,0-.67-.54L47.5,8.41,34.77,4.67a3.26,3.26,0,0,0-1.93,0L13.1,10.74l-.63.2a.84.84,0,0,0-.66.9.86.86,0,0,0,.7.83l1,.27a.76.76,0,1,1-.42,1.46c-.4-.1-.81-.2-1.2-.34a2.33,2.33,0,0,1-1.55-1.81c0-.07,0-.16-.08-.21v-.47s.06-.05.06-.08a2.33,2.33,0,0,1,1.77-2L32.48,3.21a4.5,4.5,0,0,1,2.62,0L56.6,9.49a2.38,2.38,0,0,1,0,4.6L47.22,17a.37.37,0,0,0-.32.43c0,.81,0,1.62,0,2.43a.43.43,0,0,0,.23.44A22.88,22.88,0,0,0,58.06,23.5a1.13,1.13,0,0,1,1.09.56ZM34.72,30.65h0v.86a37.4,37.4,0,0,0,.17,5.6,11.53,11.53,0,0,0,3.66,6.76c2.37,2.13,4.94,4,7.39,6.07.22.18.33.08.49,0,2.25-1.83,4.52-3.63,6.75-5.49A12,12,0,0,0,57.44,37a21.12,21.12,0,0,0,.15-3.64c0-2.67,0-5.34,0-8,0-.29-.06-.4-.38-.4a10.89,10.89,0,0,1-1.28-.14,24.24,24.24,0,0,1-9.45-3.18.54.54,0,0,0-.66,0A24.71,24.71,0,0,1,35.06,25c-.32,0-.35.14-.35.4C34.72,27.14,34.72,28.89,34.72,30.65ZM23.29,17.73c0,.08,0,.12,0,.16q0,4.18,0,8.39a.67.67,0,0,0,.2.45,9,9,0,0,0,3.13,2.18,16.5,16.5,0,0,0,6,1.52c.62,0,.62,0,.62-.57V24.4a.78.78,0,0,1,.85-.89A20,20,0,0,0,38.11,23a23.06,23.06,0,0,0,7-2.7.52.52,0,0,0,.3-.53c0-.61,0-1.23,0-1.84,0-.31,0-.4-.38-.29-3.28,1-6.56,2-9.84,3a4.11,4.11,0,0,1-2.57,0l-7.06-2.27Zm-7,22.67h2.28c.72,0,1.05-.44.83-1.12-.7-2.12-1.4-4.23-2.08-6.34-.07-.21-.16-.29-.36-.23a2.32,2.32,0,0,1-1.28,0c-.25-.07-.3,0-.37.22-.69,2.13-1.39,4.25-2.08,6.38-.23.7.09,1.12.83,1.12ZM14.87,29.7a1.53,1.53,0,0,0,1.52,1.56,1.6,1.6,0,0,0,1.54-1.52,1.58,1.58,0,0,0-1.5-1.54A1.52,1.52,0,0,0,14.87,29.7Z"/></svg>