<svg id="Layer_1" data-name="Layer 1" xmlns="http://www.w3.org/2000/svg" viewBox="0 0 34 34"><defs><style>.cls-1{fill:#01b4f1;}</style></defs><title>Artboard 111</title><path class="cls-1" d="M28.2,30.4a4.6,4.6,0,0,0,3-3.5h.1v-.2c-.1-.1-.1-.2-.1-.4V6.5a4.4,4.4,0,0,0-4-3.8h-.5a3.8,3.8,0,0,1-1.5.1H8.6c-.2,0-.4.1-.6-.1H7.6c-.2.2-.4.1-.7.2A4.4,4.4,0,0,0,3.6,5.6a8,8,0,0,0-.3,1.5s.1.1,0,.1h0a.5.5,0,0,1,0,.5V24.3h0v1.5h0c0,.1.1.3,0,.4h0c.2.4.1.9.3,1.3a4.8,4.8,0,0,0,2.8,2.8l1,.2h.4c.1-.1.3,0,.4,0H26.6c.2,0,.3-.1.4,0h.3ZM26.1,19.7a14.5,14.5,0,0,1-7.9,6.9,14.9,14.9,0,0,1-5.5,1,15.9,15.9,0,0,1-7.4-1.8l-.6-.4a.2.2,0,0,1-.2-.2c.1-.2.2-.1.3-.1a10.6,10.6,0,0,0,6.9-1.8l.2-.2A.1.1,0,0,0,12,23c0-.1-.1-.1-.2-.1a6.4,6.4,0,0,1-2.6-1,6.7,6.7,0,0,1-1.9-2.5q-.1-.3.3-.3H9c.1,0,.2,0,.2-.1s-.1-.1-.2-.2a5.9,5.9,0,0,1-2.5-1.7,5.3,5.3,0,0,1-1.2-3.2c0-.2.1-.3.3-.2l1.5.5c.1,0,.2.1.3,0s-.1-.2-.1-.3a4.8,4.8,0,0,1-1.5-2,5.2,5.2,0,0,1,.1-4.4c.2-.4.3-.4.6-.1a16.2,16.2,0,0,0,6.7,4.5,11.7,11.7,0,0,0,3.7.8c.3,0,.4-.1.3-.4a5.4,5.4,0,0,1,3.4-5.9,5,5,0,0,1,2.7-.3,3.4,3.4,0,0,1,2.5,1.1,1.8,1.8,0,0,0,2,.2l1.9-.8h.2a.2.2,0,0,1,0,.3A6.2,6.2,0,0,1,28.4,9c-.1,0-.4.1-.3.3s.3,0,.4,0l1.9-.6h.2a.1.1,0,0,1,0,.2l-1.2,1.4-1.1,1c-.2.1-.2.3-.2.5A15.7,15.7,0,0,1,26.1,19.7Z"/></svg>